<?xml version="1.0" encoding="UTF-8" standalone="no"?>
<!-- Created with Inkscape (http://www.inkscape.org/) -->

<svg
   xmlns:dc="http://purl.org/dc/elements/1.1/"
   xmlns:cc="http://creativecommons.org/ns#"
   xmlns:rdf="http://www.w3.org/1999/02/22-rdf-syntax-ns#"
   xmlns:svg="http://www.w3.org/2000/svg"
   xmlns="http://www.w3.org/2000/svg"
   xmlns:xlink="http://www.w3.org/1999/xlink"
   xmlns:sodipodi="http://sodipodi.sourceforge.net/DTD/sodipodi-0.dtd"
   xmlns:inkscape="http://www.inkscape.org/namespaces/inkscape"
   width="210mm"
   height="297mm"
   viewBox="0 0 210 297"
   version="1.1"
   id="svg8"
   inkscape:version="0.92.4 (5da689c313, 2019-01-14)"
   sodipodi:docname="Logo.svg">
  <defs
     id="defs2">
    <linearGradient
       id="linearGradient1057"
       inkscape:collect="always">
      <stop
         id="stop1053"
         offset="0"
         style="stop-color:#03045e;stop-opacity:1" />
      <stop
         id="stop1055"
         offset="1"
         style="stop-color:#caf0f8;stop-opacity:1" />
    </linearGradient>
    <linearGradient
       inkscape:collect="always"
       id="linearGradient1045">
      <stop
         style="stop-color:#03045e;stop-opacity:1;"
         offset="0"
         id="stop1041" />
      <stop
         style="stop-color:#03045e;stop-opacity:0;"
         offset="1"
         id="stop1043" />
    </linearGradient>
    <linearGradient
       inkscape:collect="always"
       xlink:href="#linearGradient1045"
       id="linearGradient1047"
       x1="8.6491018"
       y1="46.265051"
       x2="34.128441"
       y2="46.265051"
       gradientUnits="userSpaceOnUse"
       gradientTransform="translate(-2.1166667,-2.1166667)" />
    <linearGradient
       inkscape:collect="always"
       xlink:href="#linearGradient1057"
       id="linearGradient1049"
       x1="6.7155838"
       y1="2.9726069"
       x2="48.281727"
       y2="56.739719"
       gradientUnits="userSpaceOnUse" />
    <linearGradient
       inkscape:collect="always"
       xlink:href="#linearGradient1045"
       id="linearGradient1051"
       x1="27.890772"
       y1="18.019941"
       x2="39.820157"
       y2="18.019941"
       gradientUnits="userSpaceOnUse" />
  </defs>
  <sodipodi:namedview
     id="base"
     pagecolor="#ffffff"
     bordercolor="#666666"
     borderopacity="1.0"
     inkscape:pageopacity="0.0"
     inkscape:pageshadow="2"
     inkscape:zoom="2"
     inkscape:cx="116.03401"
     inkscape:cy="990.39026"
     inkscape:document-units="mm"
     inkscape:current-layer="layer1"
     showgrid="false"
     inkscape:window-width="1366"
     inkscape:window-height="715"
     inkscape:window-x="-8"
     inkscape:window-y="-8"
     inkscape:window-maximized="1" />
  <metadata
     id="metadata5">
    <rdf:RDF>
      <cc:Work
         rdf:about="">
        <dc:format>image/svg+xml</dc:format>
        <dc:type
           rdf:resource="http://purl.org/dc/dcmitype/StillImage" />
        <dc:title></dc:title>
      </cc:Work>
    </rdf:RDF>
  </metadata>
  <g
     inkscape:label="Layer 1"
     inkscape:groupmode="layer"
     id="layer1">
    <g
       id="g21"
       transform="translate(602.49405,-40.065476)">
      <path
         style="fill:#fdfdfd;stroke-width:0.56319237"
         d="M -343.33469,128.42263 V -7.0251436 h 135.44777 135.44777 V 128.42263 263.8704 h -135.44777 -135.44777 z"
         id="path37"
         inkscape:connector-curvature="0" />
      <path
         style="fill:#a7cfe7;stroke-width:0.56319237"
         d="m -289.04025,163.66238 c -0.20651,-0.2065 -0.37547,-0.84431 -0.37547,-1.41735 0,-1.42055 6.12961,-13.57935 7.14051,-14.16405 0.6397,-0.37 0.26091,-1.05716 -1.79339,-3.25337 -5.14768,-5.50328 -7.70511,-13.62015 -6.49969,-20.62888 0.85049,-4.94502 2.99665,-9.72181 4.3679,-9.72181 0.56384,0 4.31103,3.29347 8.33012,7.3215 4.01788,4.02682 7.705,7.3215 8.19359,7.3215 1.299,0 3.91504,-2.95424 3.91504,-4.42116 0,-1.70695 2.43006,-4.02673 4.21816,-4.02673 1.26241,0 1.37679,-0.14315 0.87039,-1.08936 -0.754,-1.40886 -0.74502,-1.48413 0.30201,-2.53116 1.36702,-1.36702 4.56231,-1.12081 6.15759,0.47446 2.78106,2.78107 2.33799,7.33935 -0.6789,6.98456 -1.17116,-0.13773 -1.61754,-0.58986 -1.98252,-2.00812 -0.33827,-1.31441 -0.79555,-1.83038 -1.6222,-1.83038 h -1.15116 l 1.16726,1.48394 c 2.16663,2.75442 0.9559,6.0724 -2.4489,6.71114 -1.08735,0.20399 -2.6915,1.17796 -3.76597,2.28654 l -1.87178,1.93118 7.16132,7.17725 c 3.93873,3.94749 7.16132,7.5881 7.16132,8.09023 0,1.84432 -5.50105,4.08834 -11.63617,4.74669 l -3.46988,0.37235 1.93047,4.51026 c 1.48778,3.47597 1.78336,4.68752 1.28895,5.28325 -0.50686,0.61073 -3.14906,0.77299 -12.58733,0.77299 -6.5702,0 -12.11477,-0.16896 -12.32127,-0.37547 z m 70.02358,-0.004 c -1.5303,-0.56812 -2.25277,-2.05243 -2.25277,-4.62828 0,-1.98115 -0.1492,-2.39015 -0.67876,-1.8606 -0.50025,0.50025 -0.52815,1.24304 -0.10606,2.82439 0.31498,1.18009 0.47259,2.44596 0.35024,2.81303 -0.27865,0.83593 -1.9542,0.8693 -2.76837,0.0551 -0.44089,-0.4409 -0.71818,-0.4409 -0.99066,0 -0.56812,0.91923 -2.39655,0.7364 -2.78604,-0.27859 -0.18802,-0.48996 -0.34185,-1.87872 -0.34185,-3.08611 v -2.19527 l -1.83037,1.01998 c -1.36677,0.76162 -1.9017,1.50763 -2.11198,2.94531 -0.21295,1.45602 -0.55616,1.92535 -1.40798,1.92535 -1.06631,0 -1.12638,-0.37547 -1.12638,-7.03991 v -7.0399 l 1.92793,-0.18376 c 1.06036,-0.10106 2.55909,0.15237 3.33051,0.56319 1.10916,0.59069 1.45204,0.59967 1.63896,0.043 0.14134,-0.42098 1.23443,-0.70399 2.71903,-0.70399 1.85903,0 2.65648,0.27834 3.17465,1.10805 0.68505,1.09695 0.70455,1.09624 1.94638,-0.0704 1.6541,-1.55394 4.06839,-1.5176 5.36263,0.0807 0.72607,0.89666 1.01962,2.21408 1.01962,4.57594 0,3.16242 0.0655,3.31676 1.40798,3.31676 1.01826,0 1.40799,0.30259 1.40799,1.09315 0,0.60123 0.25343,1.24978 0.56319,1.44122 0.35983,0.22239 0.5663,-1.54498 0.57181,-4.8947 0.005,-2.88352 0.19482,-5.51742 0.4224,-5.8531 0.57191,-0.84361 7.98036,-0.96586 8.96588,-0.14795 0.59709,0.49553 0.94644,0.49608 1.44026,0.002 0.80165,-0.80165 3.51072,-0.84954 4.93507,-0.0873 0.70535,0.3775 1.1709,0.3775 1.4042,0 0.19196,-0.31059 1.60919,-0.56471 3.14941,-0.56471 3.03016,0 4.25464,1.15429 2.5678,2.42062 -0.70095,0.52622 -0.93611,1.93084 -1.05622,6.30886 -0.14623,5.33002 -0.22137,5.64143 -1.40179,5.80928 -1.54009,0.219 -1.79819,-0.7109 -1.99064,-7.17193 -0.0901,-3.02641 -0.38121,-4.82122 -0.8046,-4.96133 -0.37979,-0.12567 -0.74091,0.45683 -0.84479,1.36265 -0.25759,2.24638 -2.26305,2.46543 -3.10197,0.33881 -0.53285,-1.35073 -0.62883,-0.9124 -0.68029,3.10698 -0.0383,2.99053 0.14336,4.55394 0.50328,4.3315 0.30975,-0.19144 0.56319,-0.85761 0.56319,-1.48039 0,-0.85212 0.31357,-1.08778 1.26718,-0.95235 1.78229,0.25313 2.06583,3.32367 0.4556,4.9339 -1.33067,1.33068 -2.5634,1.43418 -4.4732,0.37555 -1.12001,-0.62083 -1.60316,-0.61406 -2.91606,0.0409 -1.75857,0.87729 -4.39107,0.48034 -4.8564,-0.73231 -0.23056,-0.60083 -0.61252,-0.5171 -1.76051,0.38591 -1.6424,1.29191 -3.85208,1.09139 -5.03478,-0.45691 -0.65185,-0.85335 -0.75613,-0.85335 -1.40798,0 -0.78838,1.03209 -3.07893,1.64468 -4.36474,1.16731 z m 18.58535,-4.67145 c 0,-2.07986 -0.0878,-2.20237 -1.26718,-1.76907 -1.44564,0.53111 -2.02218,2.79392 -0.89406,3.50899 1.56411,0.99142 2.16124,0.5107 2.16124,-1.73992 z m -16.93536,-2.9749 c -0.0266,-3.11948 -0.19864,-4.27619 -0.5236,-3.51996 -0.80442,1.87198 -0.53675,8.16629 0.34728,8.16629 0.11875,0 0.1981,-2.09085 0.17632,-4.64633 z m -14.04022,-2.42681 c 0,-0.44635 -0.25344,-0.81155 -0.56319,-0.81155 -0.30976,0 -0.5632,0.52183 -0.5632,1.15962 0,0.6378 0.25344,1.00299 0.5632,0.81155 0.30975,-0.19144 0.56319,-0.71327 0.56319,-1.15962 z m 6.5854,-0.66004 c -0.14279,-0.54796 -0.26901,-0.23599 -0.28049,0.69328 -0.0115,0.92927 0.10535,1.3776 0.25963,0.9963 0.15427,-0.3813 0.16365,-1.14161 0.0209,-1.68958 z m 24.39018,0.0698 c 0,-1.62101 -0.17998,-1.96237 -0.89085,-1.68958 -0.48997,0.18802 -1.12356,0.34185 -1.40798,0.34185 -0.78492,0 -0.61825,2.6813 0.18686,3.00617 1.66746,0.67283 2.11197,0.32378 2.11197,-1.65844 z m -32.45078,-15.90713 c -2.16487,-1.36036 -3.03034,-3.70838 -3.03034,-8.22129 0,-3.80677 0.58998,-4.81573 2.81596,-4.81573 2.18862,0 2.81596,1.01347 2.81596,4.54922 0,2.23041 0.2698,3.42146 0.892,3.93784 1.51592,1.2581 2.74437,-0.059 2.94463,-3.1571 0.28884,-4.46842 -0.049,-5.03011 -3.86187,-6.42034 -5.00039,-1.82324 -5.70371,-3.18646 -5.49106,-10.64313 0.16474,-5.77681 0.17962,-5.83218 2.00524,-7.4623 1.63,-1.45546 2.25373,-1.64231 5.48224,-1.64231 3.2285,0 3.85224,0.18685 5.48224,1.6423 1.81414,1.61987 1.83926,1.71024 1.83926,6.61751 v 4.97521 h -2.53437 -2.53436 l -0.2816,-3.93717 c -0.22965,-3.2108 -0.46842,-3.97268 -1.29424,-4.12965 -1.79171,-0.34057 -2.64811,0.97506 -2.64811,4.06812 0,3.55715 1.02909,5.15741 3.6304,5.64542 4.76557,0.89403 6.99651,5.50381 6.17552,12.76043 -0.58385,5.16049 -2.2688,6.86398 -7.05648,7.13411 -2.84107,0.16031 -3.96236,-0.0285 -5.35102,-0.90114 z m 15.9774,0.43448 c -0.90322,-0.52608 -0.98558,-1.95515 -0.98558,-17.09998 0,-14.54995 0.10651,-16.56681 0.89085,-16.86779 0.48997,-0.18802 3.28404,-0.34185 6.20905,-0.34185 5.09093,0 5.3401,0.0576 5.83054,1.34754 1.15224,3.03061 2.6e-4,4.09838 -4.76415,4.41587 l -2.25277,0.15011 -0.16895,3.56912 c -0.21072,4.45145 0.32339,5.16036 3.88793,5.16036 2.4273,0 2.77502,0.15439 3.07945,1.36734 0.68175,2.7163 -0.13344,3.70139 -3.063,3.70139 -1.46595,0 -2.96949,0.30413 -3.3412,0.67583 -0.69854,0.69855 -0.93776,6.43416 -0.33398,8.00759 0.25352,0.66065 1.1303,0.89085 3.3931,0.89085 2.73361,0 3.10677,0.14606 3.58469,1.4031 0.56041,1.47397 0.21707,3.10011 -0.80185,3.79781 -0.91213,0.62457 -10.03618,0.47968 -11.16413,-0.17729 z m 14.54244,-0.27671 c -1.30023,-1.30023 -1.33585,-32.39446 -0.0384,-33.47129 0.58409,-0.48475 2.28712,-0.62667 5.49113,-0.45762 5.06265,0.26712 7.11186,1.16255 8.2184,3.59115 0.88861,1.95029 0.84064,13.68835 -0.0623,15.24396 -0.38263,0.6592 -0.97996,1.67295 -1.3274,2.25277 -0.49655,0.82865 -0.28551,2.25926 0.98631,6.68614 1.50377,5.23426 1.55072,5.68163 0.66487,6.33592 -1.22314,0.9034 -3.07171,0.8991 -4.31501,-0.01 -0.54766,-0.40046 -1.48161,-2.68594 -2.12681,-5.20451 -1.73559,-6.77496 -2.14424,-6.91072 -2.16362,-0.71881 -0.0151,4.82288 -0.14623,5.54041 -1.10649,6.05432 -1.56282,0.8364 -3.19944,0.71929 -4.22073,-0.30201 z m 7.80423,-17.45896 c 0.65188,-0.65188 0.88502,-2.03164 0.88502,-5.23769 0,-4.4933 -0.50218,-5.70434 -2.36541,-5.70434 -0.90747,0 -1.01374,0.58058 -1.01374,5.53806 0,6.48044 0.44768,7.45042 2.49413,5.40397 z m 8.5407,17.60729 c -0.96206,-0.70349 -0.91706,-1.45515 0.99818,-16.6725 1.10312,-8.76468 2.29939,-16.28971 2.65838,-16.72227 0.90907,-1.09535 6.90157,-1.06797 7.81756,0.0357 0.3753,0.45221 1.56099,7.98497 2.63486,16.73947 1.84712,15.05818 1.89939,15.9561 0.96853,16.63676 -2.33199,1.70518 -5.27423,0.23832 -5.27423,-2.62949 0,-0.86842 -0.15839,-2.37094 -0.35199,-3.33893 -0.29184,-1.45915 -0.6167,-1.75995 -1.90078,-1.75995 -1.28407,0 -1.60894,0.3008 -1.90077,1.75998 -0.1936,0.96798 -0.352,2.60641 -0.352,3.64093 0,2.74302 -2.94786,4.02855 -5.29774,2.31029 z m 8.3311,-17.98946 c -0.20469,-2.55549 -0.46405,-4.75194 -0.57637,-4.881 -0.4414,-0.50722 -0.62683,0.41184 -0.9848,4.881 -0.35463,4.4275 -0.31787,4.64634 0.78058,4.64634 1.09845,0 1.13521,-0.21884 0.78059,-4.64634 z m 10.05233,18.25661 c -0.55419,-0.35177 -0.67934,-4.19844 -0.56319,-17.30954 l 0.14933,-16.85726 h 5.17018 c 4.36978,0 5.41603,0.18286 6.75831,1.18115 2.18455,1.62474 3.12111,5.44198 2.82378,11.50924 -0.35708,7.28655 -1.68724,9.21459 -6.84487,9.92152 l -2.55707,0.35049 v 5.25396 c 0,4.61804 -0.13185,5.32453 -1.08936,5.83697 -1.29467,0.69289 -2.8615,0.7391 -3.84711,0.11347 z m 7.63979,-17.66526 c 1.03416,-1.03415 0.90168,-9.69947 -0.16178,-10.58206 -0.46069,-0.38234 -1.221,-0.54804 -1.68958,-0.36823 -0.67656,0.25962 -0.85196,1.41275 -0.85196,5.60106 0,2.90078 0.16896,5.4431 0.37546,5.6496 0.57685,0.57685 1.5801,0.4474 2.32786,-0.30037 z m 8.98292,17.52649 c -0.90248,-0.52565 -0.98558,-1.93924 -0.98558,-16.766 0,-11.84282 0.18152,-16.37349 0.67583,-16.86779 0.90304,-0.90305 4.10045,-0.86203 4.86769,0.0624 0.33909,0.40858 0.68427,3.61527 0.77295,7.1807 l 0.16024,6.44243 h 1.40798 1.40798 l 0.15808,-6.89271 c 0.15414,-6.72102 0.1913,-6.90105 1.4915,-7.22738 0.73337,-0.18407 1.92942,-0.2503 2.65788,-0.14719 l 1.32446,0.18747 v 16.83439 c 0,15.22107 -0.0916,16.89218 -0.95586,17.43734 -0.64873,0.40921 -1.46307,0.42487 -2.53437,0.0488 l -1.5785,-0.5542 -0.15787,-6.85394 c -0.1437,-6.23868 -0.257,-6.8854 -1.26214,-7.20442 -0.60735,-0.19276 -1.35998,-0.19245 -1.6725,5.7e-4 -0.33071,0.20438 -0.56824,3.15413 -0.56824,7.05644 0,6.05288 -0.10598,6.76198 -1.08936,7.28826 -1.36115,0.72847 -2.84164,0.71938 -4.12017,-0.0253 z m 17.3584,-0.27671 c -0.76165,-0.76164 -0.88502,-3.04363 -0.88502,-16.3696 0,-9.5969 0.22168,-15.8988 0.58301,-16.57395 0.66829,-1.24872 3.83574,-1.51407 4.93628,-0.41353 0.49432,0.49432 0.67583,5.02678 0.67583,16.87596 0,15.44018 -0.0511,16.22747 -1.08936,16.78313 -1.56282,0.8364 -3.19944,0.71929 -4.22074,-0.30201 z m 8.54845,0.27671 c -0.90248,-0.52565 -0.98558,-1.93924 -0.98558,-16.766 0,-11.84282 0.18152,-16.37349 0.67583,-16.86779 0.38181,-0.38181 2.21081,-0.67583 4.20413,-0.67583 2.78422,0 3.63934,0.20784 4.05486,0.98558 0.45915,0.85941 2.55172,13.12661 3.05024,17.88136 0.12044,1.14863 0.31322,0.60769 0.60216,-1.68957 0.98925,-7.86543 2.66408,-16.29483 3.32038,-16.71152 0.83239,-0.52848 6.13383,-0.6171 7.41882,-0.124 0.7844,0.301 0.89085,2.32137 0.89085,16.90785 v 16.56599 l -1.36645,0.62259 c -0.75155,0.34244 -2.01873,0.45889 -2.81596,0.2588 -1.44878,-0.36362 -1.44951,-0.36699 -1.44951,-6.64206 0,-3.45304 -0.14956,-6.1287 -0.33234,-5.94591 -0.24721,0.2472 -2.47015,10.59774 -2.48175,11.55557 -0.007,0.58941 -3.29701,1.21439 -4.85445,0.92221 -2.08441,-0.39103 -2.3106,-0.86946 -3.83739,-8.11685 l -0.77121,-3.66075 -0.0566,5.47131 c -0.0496,4.79963 -0.19028,5.54289 -1.14591,6.05432 -1.36115,0.72847 -2.84164,0.71938 -4.12017,-0.0253 z M -250.4428,125.06457 c -0.37171,-0.3717 -0.67678,-1.82896 -0.67794,-3.23835 -0.003,-3.42619 -1.60202,-5.99124 -4.17891,-6.70275 -1.09276,-0.30173 -2.47394,-0.42121 -3.06928,-0.26553 -2.48723,0.65043 -4.44629,-1.97325 -2.74637,-3.6781 0.3872,-0.38832 0.70399,-1.50583 0.70399,-2.48336 0,-2.42917 1.83158,-3.36422 5.95429,-3.03975 7.27812,0.5728 12.36144,5.85972 12.49311,12.99347 0.0879,4.76375 -1.14373,6.67387 -3.49271,5.41673 -0.76342,-0.40857 -1.26308,-0.2686 -2.01766,0.56521 -1.15076,1.27157 -2.00495,1.396 -2.96852,0.43243 z m 3.26651,-9.44203 c 0,-0.90001 -3.30354,-4.37399 -4.44268,-4.67188 -0.66851,-0.17482 -0.0945,0.70659 1.54965,2.37965 3.06261,3.11643 2.89303,2.98207 2.89303,2.29223 z"
         id="path35"
         inkscape:connector-curvature="0" />
      <path
         style="fill:#939fb0;stroke-width:0.56319237"
         d="m -72.43915,263.8704 c -0.49229,-0.79655 6.34043,-14.10563 7.24166,-14.10563 0.42472,0 2.18283,0.84943 3.90691,1.88762 1.72409,1.03819 4.70428,2.22071 6.62264,2.62781 l 3.48793,0.74019 1.61189,3.55494 c 1.84517,4.06943 1.96891,5.01174 0.72104,5.49059 -1.48709,0.57065 -23.22991,0.39045 -23.59207,-0.19552 z m 69.65095,-0.70165 c -0.43178,-0.43178 -0.67583,-2.62823 -0.67583,-6.08248 0,-5.68679 0.40181,-6.75831 2.53436,-6.75831 2.13255,0 2.53437,1.07152 2.53437,6.75831 0,5.6868 -0.40182,6.75831 -2.53437,6.75831 -0.65048,0 -1.48682,-0.30412 -1.85853,-0.67583 z m 2.98492,-6.09019 c 0,-4.96715 -0.0792,-5.34261 -1.12639,-5.34261 -1.02408,0 -1.14137,0.43049 -1.29147,4.74005 -0.18835,5.408 0.0435,6.40243 1.43057,6.13531 0.85818,-0.16527 0.98729,-0.8888 0.98729,-5.53275 z m 4.33658,6.09019 c -0.81715,-0.81715 -0.90161,-3.26651 -0.11264,-3.26651 0.30976,0 0.56319,0.51482 0.56319,1.14405 0,1.39735 1.61454,2.13409 2.30099,1.04999 0.27375,-0.43234 0.50161,-3.13035 0.50635,-5.99559 0.005,-3.09181 0.23757,-5.20953 0.57182,-5.20953 0.83763,0 0.73274,11.43221 -0.11264,12.27759 -0.37171,0.37171 -1.20805,0.67583 -1.85854,0.67583 -0.65048,0 -1.48682,-0.30412 -1.85853,-0.67583 z m 6.88875,-0.0662 c -0.15661,-0.40814 -0.21202,-3.38602 -0.12312,-6.61751 l 0.16164,-5.87545 1.54877,-0.1782 c 0.85183,-0.098 1.54878,0.0921 1.54878,0.42239 0,0.33033 -0.37532,0.6006 -0.83406,0.6006 -0.99846,0 -1.6677,2.27059 -1.15001,3.9017 0.20372,0.64187 0.73348,1.16703 1.17724,1.16703 1.208,0 0.97215,0.95178 -0.31955,1.28957 -0.86947,0.22737 -1.12639,0.7682 -1.12639,2.37118 0,1.60298 0.25692,2.14381 1.12639,2.37118 0.61951,0.16201 1.12638,0.51844 1.12638,0.79206 0,0.79446 -2.8218,0.5744 -3.13607,-0.24455 z m 6.62787,0.0662 c -1.07459,-1.07459 -0.90368,-10.84291 0.20918,-11.95577 1.05403,-1.05402 2.5725,-1.14457 3.50789,-0.20918 0.81829,0.81829 0.9208,4.04759 0.11263,3.54811 -0.30975,-0.19144 -0.56319,-0.84794 -0.56319,-1.4589 0,-1.37117 -1.62258,-2.08814 -2.30098,-1.01674 -0.27375,0.43234 -0.49773,2.68683 -0.49773,5.01 0,2.32317 0.22398,4.57767 0.49773,5.01001 0.68645,1.0841 2.30098,0.34736 2.30098,-1.04999 0,-0.62923 0.25344,-1.14405 0.56319,-1.14405 0.9419,0 0.64833,3.22597 -0.32765,3.60049 -1.3933,0.53466 -2.76415,0.40393 -3.50205,-0.33398 z m -35.78149,-0.26282 c -0.46937,-0.46937 -0.49815,-10.47655 -0.0336,-11.68711 0.41367,-1.07802 2.44941,-1.16331 3.82137,-0.1601 0.70968,0.51892 0.99937,1.49202 0.99937,3.35699 0,3.07566 -0.29608,3.68759 -2.11975,4.38094 -1.07563,0.40896 -1.35327,0.92179 -1.35327,2.49963 0,1.87608 -0.47089,2.45287 -1.31411,1.60965 z m 3.45694,-8.25725 c 0.15232,-2.33476 0.0413,-2.63114 -0.98559,-2.63114 -0.98949,0 -1.15724,0.35377 -1.15724,2.4405 0,1.34228 0.17424,2.61474 0.3872,2.8277 0.88913,0.88912 1.59473,-0.17073 1.75563,-2.63706 z m 3.61145,2.2968 0.15924,-6.33592 1.47798,-0.17137 c 2.49335,-0.28911 3.45595,1.24537 3.07697,4.905 -0.17947,1.73309 -0.37827,3.65794 -0.44177,4.27745 -0.0635,0.61951 0.0792,1.69662 0.3172,2.39357 0.72167,2.11364 -0.6728,1.46274 -1.59505,-0.74453 -0.95662,-2.2895 -1.99054,-2.10492 -1.99054,0.35537 0,0.91099 -0.26174,1.65634 -0.58164,1.65634 -0.37502,0 -0.52507,-2.25069 -0.42239,-6.33591 z m 3.14416,0.0281 c 0.90635,-0.90635 0.86064,-4.1016 -0.0697,-4.87373 -1.12201,-0.93118 -2.07041,0.3296 -2.07041,2.75238 0,2.74802 0.76007,3.50142 2.14013,2.12135 z m 33.90418,0.65816 c 0,-4.49267 -0.17233,-5.71573 -0.84155,-5.97253 -1.29323,-0.49626 -0.41213,-1.3313 1.40475,-1.3313 1.94418,0 2.55459,0.73798 1.40178,1.69473 -0.63357,0.52581 -0.83859,1.98721 -0.83859,5.97733 0,3.14545 -0.22777,5.28137 -0.56319,5.28137 -0.33804,0 -0.5632,-2.25866 -0.5632,-5.6496 z m -78.84693,-4.30193 c -0.77439,-0.12313 -3.30876,-0.89352 -5.63192,-1.71199 -8.88225,-3.12926 -15.75602,-13.15145 -15.75602,-22.97281 0,-4.97344 2.70249,-12.67183 4.44839,-12.67183 0.48069,0 4.3577,3.47705 8.61557,7.72677 l 7.74159,7.72677 2.26237,-2.20915 c 1.2443,-1.21502 2.26237,-2.74712 2.26237,-3.40465 0,-1.52326 2.23383,-3.64462 3.83784,-3.64462 1.63682,0 3.48366,1.91905 3.48366,3.61987 0,1.48176 -2.34123,3.70163 -3.904,3.70163 -0.51488,0 -1.93012,1.01793 -3.145,2.26207 l -2.20886,2.26208 7.1633,7.17923 c 3.93981,3.94857 7.16329,7.58801 7.16329,8.08762 0,2.30241 -10.67431,4.94867 -16.33258,4.04901 z m 36.77779,-15.39877 c -2.10669,-0.8484 -3.054,-3.5017 -2.86974,-8.03785 l 0.16509,-4.06414 h 1.97117 1.97118 l 0.28159,3.43463 c 0.39062,4.76437 2.06467,6.52889 4.18372,4.40983 0.56193,-0.56193 0.88501,-1.88494 0.88501,-3.62409 0,-4.41501 -0.63169,-5.40462 -4.09206,-6.41057 -3.70231,-1.0763 -4.66997,-2.08111 -5.4927,-5.70359 -0.98677,-4.34483 -0.2349,-9.68803 1.62499,-11.54792 2.67292,-2.67292 8.63368,-2.66653 11.05758,0.0118 1.22596,1.35467 2.00903,5.65101 1.57072,8.61783 -0.30544,2.06747 -0.38662,2.13552 -2.35164,1.97118 l -2.03529,-0.17021 -0.2816,-3.49223 c -0.31911,-3.95754 -0.99625,-4.97018 -2.98902,-4.47003 -2.03294,0.51023 -2.64345,3.65732 -1.50476,7.75677 0.49709,1.78962 0.87438,2.12426 2.99787,2.65896 4.77975,1.20356 6.55837,3.89838 6.55837,9.93676 0,6.70608 -2.04399,9.31575 -7.25038,9.25697 -1.73932,-0.0196 -3.71937,-0.25999 -4.4001,-0.53413 z m 15.29083,-0.14138 c -0.15011,-0.39117 -0.20551,-7.93091 -0.12312,-16.75498 l 0.1498,-16.04375 5.75708,-0.16033 c 5.75531,-0.16028 5.75721,-0.15988 6.11721,1.2745 0.55963,2.22972 -0.58892,3.10977 -4.05856,3.10977 h -3.0286 v 4.78714 4.78713 h 2.28979 c 2.99872,0 4.46852,0.83362 4.46852,2.53437 0,1.70433 -1.47067,2.53436 -4.49044,2.53436 H 4.3768 l 0.16273,4.92794 0.16273,4.92793 3.23465,0.16879 c 2.9036,0.15152 3.27029,0.31078 3.58284,1.55609 0.63061,2.51253 -0.50769,3.06225 -6.34094,3.06225 -3.74839,0 -5.3789,-0.20812 -5.57196,-0.71121 z m 15.08327,0.24152 c -0.55384,-0.35155 -0.67944,-4.08605 -0.56319,-16.74635 l 0.1496,-16.2939 h 5.2569 c 5.16893,0 5.28301,0.0292 6.81696,1.74732 1.19967,1.34367 1.65256,2.56484 1.96044,5.28609 0.54563,4.82276 -0.11469,10.40091 -1.42901,12.0718 -1.37591,1.74919 -1.34169,2.49903 0.38613,8.45884 1.57052,5.41728 1.442,5.92002 -1.51782,5.93727 -1.98257,0.0115 -2.41783,-0.67038 -3.58924,-5.6233 -1.89283,-8.00327 -3.09723,-8.12328 -3.09723,-0.30861 0,4.274 -0.16655,5.32075 -0.89085,5.59868 -1.21695,0.46699 -2.62714,0.41522 -3.48269,-0.12784 z m 8.54305,-19.7074 c 0.91207,-5.37768 -0.73207,-9.90014 -3.24817,-8.93462 -0.77277,0.29654 -0.92134,1.31574 -0.92134,6.32043 v 5.96688 l 1.83038,-0.17648 c 1.73869,-0.16764 1.85586,-0.32674 2.33913,-3.17621 z m 7.35622,19.582 c -0.4434,-0.71744 2.96675,-30.1271 3.70231,-31.92927 0.45601,-1.11725 0.91986,-1.26718 3.9205,-1.26718 2.99976,0 3.46499,0.15026 3.92351,1.26718 0.69888,1.70242 4.11591,30.74563 3.73432,31.74003 -0.37421,0.97519 -3.48606,1.0361 -4.10463,0.0803 -0.2506,-0.38719 -0.70981,-2.22461 -1.02047,-4.08314 -0.56467,-3.37822 -0.56537,-3.37916 -2.53436,-3.37916 h -1.96954 l -0.51062,3.66076 c -0.28084,2.01341 -0.78772,3.84694 -1.12639,4.07452 -0.9263,0.62244 -3.59597,0.51333 -4.01463,-0.16408 z m 8.95586,-14.04848 c -0.3616,-6.79171 -0.94977,-12.38966 -1.30177,-12.38966 -0.49698,0 -1.76885,12.98332 -1.33986,13.67744 0.15866,0.25673 0.8348,0.38867 1.50253,0.29321 0.89855,-0.12847 1.19456,-0.53932 1.1391,-1.58099 z m 9.50564,13.99313 c -0.52515,-0.52515 -0.70122,-4.55027 -0.70122,-16.03031 0,-8.431 0.15383,-15.72997 0.34185,-16.21994 0.27309,-0.71168 1.26425,-0.89043 4.92793,-0.88874 7.84922,0.003 9.39451,1.86718 9.33829,11.26174 -0.0372,6.2114 -0.80664,8.44653 -3.34422,9.71419 -1.08415,0.54159 -2.79002,0.98511 -3.79082,0.98559 -2.16438,0.001 -2.33752,0.48021 -2.54406,7.04078 l -0.14184,4.50554 -1.69235,0.16619 c -0.93079,0.0914 -2.00789,-0.14937 -2.39356,-0.53504 z m 7.98803,-16.56715 c 0.66336,-0.66336 0.88502,-2.06382 0.88502,-5.5917 0,-4.96393 -0.65306,-6.47671 -2.79594,-6.47671 -1.42547,0 -1.7096,1.07643 -1.7096,6.47671 0,2.58226 0.15383,5.0959 0.34185,5.58586 0.43822,1.14199 2.1395,1.14502 3.27867,0.006 z m 8.90171,16.7479 c -0.55385,-0.35155 -0.67944,-4.08605 -0.5632,-16.74635 l 0.14961,-16.2939 h 2.25276 2.25277 l 0.15814,6.8991 0.15813,6.89911 h 1.95384 1.95384 v -6.08747 c 0,-6.94462 0.49627,-8.19904 3.12533,-7.89986 l 1.6618,0.18912 v 16.61417 16.61418 l -1.6618,0.18911 c -2.65187,0.30178 -3.12533,-0.93765 -3.12533,-8.18145 v -6.36907 h -1.97118 -1.97117 v 6.97965 c 0,5.84499 -0.14482,7.03523 -0.89085,7.3215 -1.21695,0.46699 -2.62714,0.41522 -3.48269,-0.12784 z m 17.46499,-0.18075 c -0.81905,-0.81905 -1.0166,-31.20846 -0.21114,-32.47889 0.28436,-0.44851 1.23499,-0.67299 2.38494,-0.56319 l 1.91212,0.18258 v 16.61417 16.61418 l -1.69235,0.16619 c -0.93079,0.0914 -2.0079,-0.14937 -2.39357,-0.53504 z m 8.00159,-0.0608 c -0.15011,-0.39117 -0.20551,-7.93091 -0.12312,-16.75498 l 0.1498,-16.04375 3.77308,-0.16588 3.77309,-0.16589 0.55496,2.13706 c 0.7594,2.92426 2.25233,13.57299 2.65449,18.93392 0.18182,2.42364 0.47367,4.26354 0.64855,4.08866 0.17488,-0.17489 0.52716,-3.0449 0.78284,-6.37781 0.55471,-7.23111 2.14103,-17.03387 2.92126,-18.05222 0.37615,-0.49095 1.67702,-0.67462 3.98881,-0.5632 l 3.43061,0.16536 v 16.61417 16.61418 l -1.79296,0.17369 c -2.92532,0.28338 -3.15998,-0.8022 -2.69912,-12.48684 0.22158,-5.618 0.25553,-10.0764 0.0755,-9.90756 -0.18008,0.16884 -0.70516,3.3368 -1.16685,7.0399 -1.10241,8.84222 -2.29724,14.37183 -3.2337,14.96533 -1.53293,0.97154 -4.35674,0.55271 -5.19215,-0.77011 -0.81539,-1.29111 -2.22443,-8.91118 -2.91595,-15.76939 -0.70413,-6.98335 -1.16428,-3.91026 -0.91594,6.11708 0.26704,10.78241 0.23772,10.89374 -2.87377,10.91087 -0.86156,0.005 -1.68928,-0.31142 -1.83938,-0.70259 z m -124.90817,-12.0544 c -0.2065,-0.2065 -0.37546,-1.35511 -0.37546,-2.55246 0,-3.69029 -1.32372,-5.98466 -4.18239,-7.24918 -1.48422,-0.65655 -3.08149,-0.98132 -3.86236,-0.78533 -0.87968,0.22079 -1.59837,0.0126 -2.11793,-0.6134 -0.69181,-0.83358 -0.60215,-1.09454 0.74519,-2.16887 1.44619,-1.15315 1.4778,-1.27512 0.56674,-2.18617 -0.88728,-0.88729 -0.89191,-1.03788 -0.0575,-1.87233 1.40026,-1.40027 5.67703,-1.65694 8.65546,-0.51947 5.48568,2.095 8.33856,6.16419 8.38876,11.96525 0.0227,2.62174 -0.21899,3.74807 -0.96442,4.49453 -0.84863,0.84982 -1.16736,0.88824 -2.1707,0.26165 -1.0251,-0.64018 -1.28099,-0.58456 -1.99401,0.4334 -0.81754,1.16722 -1.92354,1.50025 -2.63142,0.79238 z m 2.90955,-10.17511 c -1.593,-3.09369 -4.22636,-4.66294 -7.78177,-4.63723 l -2.54315,0.0184 2.97611,1.028 c 3.64158,1.25788 5.54298,2.93804 7.0806,6.25673 1.0149,2.19048 1.20189,2.35466 1.37814,1.21001 0.11216,-0.72838 -0.38731,-2.47253 -1.10993,-3.87589 z m -8.69365,8.4386 c -0.60522,-1.95857 -1.19862,-2.6552 -2.52936,-2.96934 -0.97605,-0.23041 -1.35468,-0.70623 -1.35468,-1.70239 0,-1.14931 0.31004,-1.41245 1.83749,-1.5596 3.32969,-0.32076 6.62565,4.44202 4.52659,6.54109 -0.97483,0.97483 -2.12758,0.83085 -2.48004,-0.30976 z"
         id="path33"
         inkscape:connector-curvature="0" />
      <path
         style="fill:#69a1c6;stroke-width:0.56319237"
         d="m -73.862255,153.30629 c -0.38929,-0.62989 5.94859,-12.9529 6.671,-12.9707 0.27174,-0.007 2.0458,0.74387 3.94235,1.66791 1.89654,0.92405 4.84216,2.01672 6.54582,2.42815 3.03587,0.73316 3.13374,0.82027 4.91464,4.37423 0.99939,1.99439 1.82306,3.94297 1.83037,4.33016 0.0164,0.86731 -23.37043,1.03387 -23.90418,0.17025 z m 69.0855102,-0.14209 c -0.43178,-0.43178 -0.67583,-2.62823 -0.67583,-6.08248 0,-5.68679 0.40181,-6.75831 2.53436,-6.75831 2.13255004,0 2.53437004,1.07152 2.53437004,6.75831 0,5.6868 -0.40182,6.75831 -2.53437004,6.75831 -0.65048,0 -1.48682,-0.30412 -1.85853,-0.67583 z m 2.98492,-6.09019 c 0,-4.96715 -0.0792,-5.34261 -1.12639,-5.34261 -1.02408,0 -1.14137,0.43049 -1.29147,4.74005 -0.18835,5.408 0.0435,6.40243 1.43057,6.13531 0.85818,-0.16527 0.98729,-0.8888 0.98729,-5.53275 z m 4.33658,6.09019 c -0.81715,-0.81715 -0.90161,-3.26651 -0.11264,-3.26651 0.30976,0 0.56319,0.51482 0.56319,1.14405 0,1.39735 1.61454,2.13409 2.30099,1.04999 0.27375,-0.43234 0.50161,-3.13035 0.50635,-5.99559 0.005,-3.09181 0.23757,-5.20953 0.57182,-5.20953 0.83763,0 0.73274,11.43221 -0.11264,12.27759 -0.37171,0.37171 -1.20805,0.67583 -1.85854,0.67583 -0.65048,0 -1.48682,-0.30412 -1.85853,-0.67583 z m 6.88875,-0.0662 c -0.15661,-0.40814 -0.21202,-3.38602 -0.12312,-6.61751 l 0.16164,-5.87545 1.5487698,-0.1782 c 0.85183,-0.098 1.54878,0.0921 1.54878,0.42239 0,0.33033 -0.37532,0.6006 -0.83406,0.6006 -0.99846,0 -1.6677,2.27059 -1.15001,3.9017 0.20372,0.64187 0.73348,1.16703 1.17724,1.16703 1.208,0 0.97215,0.95178 -0.31955,1.28957 -0.86947,0.22737 -1.12639,0.7682 -1.12639,2.37118 0,1.60298 0.25692,2.14381 1.12639,2.37118 0.61951,0.16201 1.12638,0.51844 1.12638,0.79206 0,0.79446 -2.8217998,0.5744 -3.1360698,-0.24455 z m 6.6278698,0.0662 c -1.07459,-1.07459 -0.90368,-10.84291 0.20918,-11.95577 1.05403,-1.05402 2.5725,-1.14457 3.50789,-0.20918 0.81829,0.81829 0.9208,4.04759 0.11263,3.54811 -0.30975,-0.19144 -0.56319,-0.84794 -0.56319,-1.4589 0,-1.37117 -1.62258,-2.08814 -2.30098,-1.01674 -0.27375,0.43234 -0.49773,2.68683 -0.49773,5.01 0,2.32317 0.22398,4.57767 0.49773,5.01001 0.68645,1.0841 2.30098,0.34736 2.30098,-1.04999 0,-0.62923 0.25344,-1.14405 0.56319,-1.14405 0.9419,0 0.64833,3.22597 -0.32765,3.60049 -1.3933,0.53466 -2.76415,0.40393 -3.50205,-0.33398 z m -35.78149,-0.26282 c -0.46937,-0.46937 -0.49815,-10.47655 -0.0336,-11.68711 0.41367,-1.07802 2.44941,-1.16331 3.82137,-0.1601 0.70968,0.51892 0.99937,1.49202 0.99937,3.35699 0,3.07566 -0.29608,3.68759 -2.11975,4.38094 -1.07563,0.40896 -1.35327,0.92179 -1.35327,2.49963 0,1.87608 -0.47089,2.45287 -1.31411,1.60965 z m 3.45694,-8.25725 c 0.15232,-2.33476 0.0413,-2.63114 -0.98559,-2.63114 -0.98949,0 -1.15724,0.35377 -1.15724,2.4405 0,1.34228 0.17424,2.61474 0.3872,2.8277 0.88913,0.88912 1.59473,-0.17073 1.75563,-2.63706 z m 3.61145,2.2968 0.15924,-6.33592 1.47798,-0.17137 c 2.4933502,-0.28911 3.4559502,1.24537 3.0769702,4.905 -0.17947,1.73309 -0.37827,3.65794 -0.44177,4.27745 -0.0635,0.61951 0.0792,1.69662 0.3172,2.39357 0.72167,2.11364 -0.6728,1.46274 -1.59505,-0.74453 -0.9566202,-2.2895 -1.9905402,-2.10492 -1.9905402,0.35537 0,0.91099 -0.26174,1.65634 -0.58164,1.65634 -0.37502,0 -0.52507,-2.25069 -0.42239,-6.33591 z m 3.1441602,0.0281 c 0.90635,-0.90635 0.86064,-4.1016 -0.0697,-4.87373 -1.1220102,-0.93118 -2.0704102,0.3296 -2.0704102,2.75238 0,2.74802 0.76007,3.50142 2.1401302,2.12135 z m 33.9041798,0.65816 c 0,-4.49267 -0.17233,-5.71573 -0.84155,-5.97253 -1.29323,-0.49626 -0.41213,-1.3313 1.40475,-1.3313 1.94418,0 2.55459,0.73798 1.40178,1.69473 -0.63357,0.52581 -0.83859,1.98721 -0.83859,5.97733 0,3.14545 -0.22777,5.28137 -0.56319,5.28137 -0.33804,0 -0.5632,-2.25866 -0.5632,-5.6496 z m -81.44737,-4.99765 c -5.20197,-1.31489 -11.07172,-5.7305 -14.2951,-10.7537 -3.98059,-6.20321 -4.98234,-14.04755 -2.65546,-20.79384 2.03704,-5.90594 2.0934,-5.89204 10.71262,2.64274 4.13809,4.09755 7.91681,7.45008 8.39715,7.45008 1.30476,0 4.94677,-4.30419 4.94677,-5.84618 0,-1.6622 1.24065,-2.7425 3.14957,-2.7425 1.86045,0 3.18634,1.32589 3.18634,3.18634 0,1.96768 -1.09252,3.14957 -2.91142,3.14957 -1.52065,0 -5.67726,3.58317 -5.67726,4.89402 0,0.34243 3.16197,3.87985 7.0266,7.86095 3.86462,3.9811 7.03258,7.44246 7.0399,7.69191 0.007,0.24946 -1.44395,1.13477 -3.22505,1.96736 -2.71283,1.26813 -4.10661,1.53191 -8.58868,1.62541 -2.94268,0.0614 -6.14037,-0.0881 -7.10598,-0.33216 z m 42.3055,-14.52447 c -0.61951,-0.11868 -1.69201,-0.33632 -2.38332,-0.48362 -1.53637,-0.32737 -2.69542,-2.48714 -3.20108,-5.96493 -0.56352,-3.87563 0.0108,-5.55043 1.90326,-5.55043 1.49784,0 1.55827,0.11975 1.89835,3.76162 0.39319,4.21051 0.76477,4.82707 2.90918,4.82707 2.29063,0 2.81612,-0.96246 2.81431,-5.15456 -0.002,-4.62022 -0.50811,-5.34585 -4.54776,-6.52021 -4.31488,-1.25437 -5.02486,-2.53975 -5.02486,-9.09728 0,-4.39777 0.18133,-5.4365 1.18412,-6.78308 2.33931,-3.141292 9.2039202,-3.035271 11.3071302,0.17464 0.62649,0.95614 0.95532,2.69049 0.98331,5.18623 l 0.0421,3.74971 -1.83038,0.17648 c -1.8199202,0.17547 -1.8303702,0.16201 -1.8303702,-2.35691 0,-3.25198 -0.76579,-5.23232 -2.19924,-5.68728 -1.84526,-0.58566 -3.2801,0.57634 -3.54829,2.87359 -0.25758,2.20639 0.26912,6.74334 0.85031,7.32454 0.19165,0.19165 1.67816,0.78193 3.30335,1.31174 4.1060102,1.33855 5.1817802,2.95196 5.4451002,8.16646 0.23941,4.74112 -0.5832,7.88121 -2.35271,8.98082 -1.4094602,0.87586 -4.0985802,1.37652 -5.7224702,1.0654 z m 12.4580002,-1.04321 c -0.52371,-1.36478 -0.40411,-30.272417 0.12872,-31.112272 0.33569,-0.529102 1.90107004,-0.682048 5.7641,-0.563192 5.23784,0.161163 5.30326,0.180543 5.30326,1.571155 0,1.314109 -0.22527,1.426749 -3.37915,1.689579 l -3.37916,0.28159 v 5.06874 5.06873 l 3.09756,0.28159 c 3.00369,0.27307 3.09756,0.3328 3.09756,1.97118 0,1.63837 -0.0939,1.69811 -3.09756,1.97117 l -3.09756,0.2816 -0.16172,5.19354 c -0.18143,5.82683 -0.37259,5.58435 4.66726,5.92019 1.98746,0.13244 2.25277,0.31593 2.25277,1.55809 0,1.39328 -0.0567,1.40966 -5.42335,1.56836 -4.57133,0.13518 -5.47825,0.0173 -5.77273,-0.75005 z m 15.2581498,0.52166 c -0.22072,-0.22072 -0.40132,-7.58201 -0.40132,-16.35843 V 95.268023 h 4.83046 c 4.55475,0 4.92167,0.09121 6.42847,1.598014 1.9398,1.939793 2.54508,5.199683 2.08788,11.244843 -0.22915,3.02994 -0.65282,4.69033 -1.48346,5.81383 -1.46484,1.9813 -1.44769,2.53756 0.25728,8.34821 0.80213,2.7337 1.18579,4.96935 0.90158,5.25356 -0.27212,0.27212 -1.2155,0.41159 -2.09642,0.30993 -1.39817,-0.16134 -1.69779,-0.54261 -2.35819,-3.00079 -2.09502,-7.79815 -2.4388,-8.72948 -3.22227,-8.72948 -1.04684,0 -1.36712,1.46152 -1.54274,7.03991 -0.13729,4.36107 -0.18766,4.51088 -1.57089,4.67219 -0.78599,0.0917 -1.60966,-0.0139 -1.83038,-0.23467 z m 7.93393,-16.09561 c 1.07459,-1.07458 0.90368,-10.84291 -0.20919,-11.95576 -1.05402,-1.05403 -2.57249,-1.14458 -3.50788,-0.20919 -0.72149,0.72149 -0.98791,11.77778 -0.30037,12.46532 0.62224,0.62224 3.29464,0.42244 4.01744,-0.30037 z m 8.22578,15.66501 c -0.16467,-0.42911 0.54032,-7.71542 1.56663,-16.19178 l 1.86603,-15.41157 3.47367,-0.166474 c 2.94117,-0.140956 3.5195,-0.01143 3.77262,0.844788 0.63053,2.132996 3.79698,30.169796 3.49593,30.954296 -0.19903,0.51867 -0.895,0.75992 -1.86909,0.64787 -1.42667,-0.1641 -1.59746,-0.45135 -2.11518,-3.55767 -0.69775,-4.18654 -1.07641,-4.78713 -3.01816,-4.78713 -2.09507,0 -2.89536,0.95501 -2.89536,3.45513 0,3.29693 -0.86208,4.99275 -2.5381,4.99275 -0.79178,0 -1.57432,-0.35109 -1.73899,-0.78021 z m 8.61365,-11.75082 c 0.58811,-0.77804 -0.42401,-15.28292 -1.1146,-15.97351 -0.81566,-0.81567 -1.14322,0.43932 -1.59371,6.10613 -0.25291,3.18133 -0.57522,6.57801 -0.71625,7.54817 -0.14103,0.97016 0.0269,2.04726 0.37322,2.39356 0.83743,0.83744 2.39075,0.79959 3.05134,-0.0743 z m 9.43468,11.81905 c -0.15026,-0.39159 -0.20567,-7.67789 -0.12311,-16.19178 l 0.15009,-15.4798 4.18363,-0.167499 c 7.6186,-0.305025 9.05139,1.310036 9.05139,10.202829 0,8.23219 -0.96111,9.86043 -6.19512,10.49535 l -2.53437,0.30744 -0.14184,4.50554 c -0.20401,6.4803 -0.39644,7.0399 -2.42093,7.0399 -0.93308,0 -1.81946,-0.32039 -1.96974,-0.71198 z m 7.94482,-15.2936 c 0.95159,-0.69581 1.09323,-1.5044 1.09323,-6.24052 0,-4.78451 -0.13543,-5.54015 -1.12229,-6.26177 -0.61727,-0.45135 -1.63101,-0.74772 -2.25277,-0.65859 -1.04149,0.1493 -1.14314,0.64687 -1.29139,6.32097 -0.0885,3.38741 -0.0331,6.49201 0.12312,6.89911 0.37314,0.97238 2.07938,0.9431 3.4501,-0.0592 z m 9.09765,15.65597 c -0.22073,-0.22072 -0.40132,-7.58201 -0.40132,-16.35843 V 95.268023 h 1.95384 1.95384 l 0.15813,6.899107 0.15813,6.89911 h 2.25277 2.25277 l 0.2816,-6.75831 0.2816,-6.75831 h 1.97117 1.97117 v 16.05098 16.05099 h -1.97117 -1.97117 l -0.2816,-7.03991 -0.2816,-7.0399 h -2.25277 -2.25277 l -0.28159,7.0399 c -0.28131,7.03271 -0.28306,7.04007 -1.71065,7.20656 -0.78599,0.0917 -1.60966,-0.0139 -1.83038,-0.23467 z m 17.31227,-0.36237 c -0.15026,-0.39159 -0.20567,-7.67789 -0.12312,-16.19178 l 0.15009,-15.4798 1.83038,-0.176482 1.83037,-0.176482 v 16.368264 16.36826 h -1.70725 c -0.93899,0 -1.8302,-0.32039 -1.98047,-0.71198 z m 8.59458,0.36237 c -0.22073,-0.22072 -0.40132,-7.58201 -0.40132,-16.35843 V 95.268023 h 3.34592 c 1.84025,0 3.50161,0.251922 3.69191,0.559831 0.70829,1.146045 2.4226,12.893486 2.79483,19.151906 0.689905,11.59918 1.644165,11.28261 2.546525,-0.84479 0.34572,-4.64634 1.06413,-10.72882 1.59646,-13.51662 l 0.96788,-5.06873 3.31745,-0.171549 c 2.27261,-0.117515 3.46423,0.05987 3.78347,0.563193 0.61385,0.967835 0.60553,30.363856 -0.009,31.333026 -0.26972,0.42547 -1.1784,0.66878 -2.10335,0.56319 l -1.62844,-0.18589 0.19413,-14.07981 c 0.22329,-16.19512 -0.43824,-17.782449 -1.87769,-4.50554 -1.03584,9.55416 -2.38182,17.11937 -3.2315,18.16295 -0.87816,1.07857 -4.245055,0.88306 -4.849455,-0.28159 -0.72799,-1.4028 -2.17489,-10.05598 -2.89579,-17.31817 -0.77664,-7.82389 -1.13859,-9.85587 -1.7556,-9.85587 -0.27128,0 -0.43278,6.25822 -0.35971,13.93901 l 0.13261,13.93902 -1.42905,0.16665 c -0.78599,0.0917 -1.60966,-0.0139 -1.83038,-0.23467 z m -125.67628,-13.05563 c -0.18836,-0.5935 -0.18999,-1.47647 -0.003,-1.96217 0.18638,-0.4857 -0.16581,-2.02403 -0.78266,-3.41851 -1.38726,-3.13613 -3.80801,-4.57548 -6.87137,-4.08562 -2.52003,0.40296 -3.99221,-0.75009 -2.79676,-2.19052 1.04266,-1.25634 4.99704,-1.04495 7.90161,0.4224 4.0167,2.02917 6.49709,6.98035 5.25966,10.49896 -0.62671,1.78206 -2.23592,2.21928 -2.70687,0.73546 z m -5.24054,-0.23342 c -0.32292,-0.39751 -0.67814,-1.21361 -0.78938,-1.81355 -0.1269,-0.68439 -0.89727,-1.2709 -2.06762,-1.57417 -1.49164,-0.38652 -1.82997,-0.73216 -1.68872,-1.72515 0.13397,-0.94176 0.61663,-1.28427 1.99764,-1.41758 2.64876,-0.25569 4.78484,1.99221 4.54844,4.78651 -0.18546,2.19217 -1.03477,2.93261 -2.00036,1.74394 z m 9.94509,-0.30035 c -0.026,-0.23232 -0.0893,-1.81629 -0.14079,-3.51995 -0.19624,-6.49659 -3.89775,-10.11116 -10.37183,-10.1282 -3.15578,-0.008 -3.51995,-0.12724 -3.51995,-1.14959 0,-1.55142 1.93406,-2.16859 5.35033,-1.70733 5.51545,0.7447 9.52861,3.84986 10.9026,8.43581 1.23854,4.13389 0.5467,8.49165 -1.34814,8.49165 -0.45374,0 -0.84624,-0.19007 -0.87222,-0.42239 z"
         id="path31"
         inkscape:connector-curvature="0" />
      <path
         style="fill:#5e728c;stroke-width:0.56319237"
         d="m -87.469398,66.371767 c -0.45092,-0.72962 6.00827,-12.95549 6.8527,-12.9707 0.37169,-0.007 2.14574,0.87402 3.94235,1.95716 1.79661,1.08313 4.7089,2.25363 6.47175,2.60111 l 3.20519,0.63179 1.47376,3.6814 c 1.16994,2.92245 1.32191,3.77771 0.73716,4.14857 -1.03483,0.6563 -22.27535,0.61011 -22.68291,-0.0493 z m 17.72236,-11.02034 c -4.65108,-1.14053 -8.3298,-2.95688 -11.03037,-5.44617 -7.17532,-6.61399 -9.89582,-16.8721 -6.83105,-25.75773 2.05644,-5.96218 2.07614,-5.95677 11.09065,3.04048 l 7.87796,7.86288 2.28615,-2.23237 c 1.25739,-1.22781 2.43621,-2.86743 2.61961,-3.64363 0.46761,-1.97905 1.82837,-3.38242 3.27973,-3.38242 1.36561,0 3.09755,1.60795 3.09755,2.87579 0,1.41737 -1.70477,3.31877 -2.98869,3.3334 -1.28161,0.0146 -6.02238,4.06621 -6.02238,5.1469 0,0.33811 3.16795,3.70328 7.0399,7.47814 3.87195,3.77486 7.03991,7.15739 7.03991,7.51673 0,1.0073 -2.92847,2.29254 -7.33642,3.21978 -4.73623,0.99629 -6.01774,0.9948 -10.12255,-0.0118 z m 41.39464,-14.18083 c -0.61951,-0.11868 -1.69201,-0.33632 -2.38332,-0.48362 -1.53637,-0.32737 -2.69542,-2.48714 -3.20108,-5.96493 -0.56352,-3.87563 0.0108,-5.55043 1.90326,-5.55043 1.49784,0 1.55827,0.11975 1.89835,3.76162 0.39319,4.21051 0.76477,4.82707 2.90918,4.82707 2.29063,0 2.81612,-0.96246 2.81431,-5.15456 -0.002,-4.62022 -0.50811,-5.34585 -4.54776,-6.52021 -4.31488,-1.25437 -5.02486,-2.53975 -5.02486,-9.09728 0,-4.39777 0.18133,-5.4365 1.18412,-6.78308 2.33931,-3.1412923 9.20392,-3.0352713 11.30713,0.17464 0.62649,0.95614 0.95532,2.69049 0.98331,5.18623 l 0.0421,3.74971 -1.83038,0.17648 c -1.81992,0.17547 -1.83037,0.16201 -1.83037,-2.35691 0,-3.25198 -0.76579,-5.23232 -2.19924,-5.68728 -1.84526,-0.58566 -3.2801,0.57634 -3.54829,2.87359 -0.25758,2.20639 0.26912,6.74334 0.85031,7.32454 0.19165,0.19165 1.67816,0.78193 3.30335,1.31174 4.10601,1.33855 5.18178,2.95196 5.4451,8.16646 0.23941,4.74112 -0.5832,7.88121 -2.35271,8.98082 -1.40946,0.87586 -4.09858,1.37652 -5.72247,1.0654 z m 12.458,-1.04321 c -0.52371,-1.36478 -0.40411,-30.2724173 0.12872,-31.1122723 0.33569,-0.529102 1.90107,-0.682048 5.7641,-0.563192 5.2378404,0.161163 5.3032604,0.180543 5.3032604,1.5711553 0,1.314109 -0.22527,1.426749 -3.37915,1.689579 l -3.3791604,0.28159 v 5.06874 5.06873 l 3.0975604,0.28159 c 3.00369,0.27307 3.09756,0.3328 3.09756,1.97118 0,1.63837 -0.0939,1.69811 -3.09756,1.97117 l -3.0975604,0.2816 -0.16172,5.19354 c -0.18143,5.82683 -0.37259,5.58435 4.6672604,5.92019 1.98746,0.13244 2.25277,0.31593 2.25277,1.55809 0,1.39328 -0.0567,1.40966 -5.4233504,1.56836 -4.57133,0.13518 -5.47825,0.0173 -5.77273,-0.75005 z m 15.25815038,0.52166 c -0.22072,-0.22072 -0.40131998,-7.58201 -0.40131998,-16.35843 V 8.3334997 h 4.83046 c 4.55475,0 4.92167,0.09121 6.4284696,1.598014 1.9398,1.9397933 2.54508,5.1996833 2.08788,11.2448433 -0.22915,3.02994 -0.65282,4.69033 -1.48346,5.81383 -1.4648396,1.9813 -1.4476896,2.53756 0.25728,8.34821 0.80213,2.7337 1.18579,4.96935 0.90158,5.25356 -0.27212,0.27212 -1.2155,0.41159 -2.0964196,0.30993 -1.39817,-0.16134 -1.69779,-0.54261 -2.35819,-3.00079 -2.09502,-7.79815 -2.4388,-8.72948 -3.22227,-8.72948 -1.04684,0 -1.36712,1.46152 -1.54274,7.03991 -0.13729,4.36107 -0.18766,4.51088 -1.57089,4.67219 -0.78599002,0.0917 -1.60966002,-0.0139 -1.83038002,-0.23467 z M 7.2976824,24.553437 c 1.07459,-1.07458 0.90368,-10.84291 -0.20919,-11.95576 -1.05402,-1.05403 -2.57249,-1.14458 -3.50788,-0.20919 -0.72149,0.72149 -0.98791,11.77778 -0.30037,12.46532 0.62224,0.62224 3.29464,0.42244 4.01744,-0.30037 z m 8.2257796,15.66501 c -0.16467,-0.42911 0.54032,-7.71542 1.56663,-16.19178 l 1.86603,-15.4115703 3.47367,-0.166474 c 2.94117,-0.140956 3.5195,-0.01143 3.77262,0.844788 0.63053,2.1329963 3.79698,30.1697963 3.49593,30.9542963 -0.19903,0.51867 -0.895,0.75992 -1.86909,0.64787 -1.42667,-0.1641 -1.59746,-0.45135 -2.11518,-3.55767 -0.69775,-4.18654 -1.07641,-4.78713 -3.01816,-4.78713 -2.09507,0 -2.89536,0.95501 -2.89536,3.45513 0,3.29693 -0.86208,4.99275 -2.5381,4.99275 -0.79178,0 -1.57432,-0.35109 -1.73899,-0.78021 z m 8.61365,-11.75082 c 0.58811,-0.77804 -0.42401,-15.28292 -1.1146,-15.97351 -0.81566,-0.81567 -1.14322,0.43932 -1.59371,6.10613 -0.25291,3.18133 -0.57522,6.57801 -0.71625,7.54817 -0.14103,0.97016 0.0269,2.04726 0.37322,2.39356 0.83743,0.83744 2.39075,0.79959 3.05134,-0.0743 z m 9.43468,11.81905 c -0.15026,-0.39159 -0.20567,-7.67789 -0.12311,-16.19178 l 0.15009,-15.4798003 4.18363,-0.167499 c 7.6186,-0.305025 9.05139,1.310036 9.05139,10.2028293 0,8.23219 -0.96111,9.86043 -6.19512,10.49535 l -2.53437,0.30744 -0.14184,4.50554 c -0.20401,6.4803 -0.39644,7.0399 -2.42093,7.0399 -0.93308,0 -1.81946,-0.32039 -1.96974,-0.71198 z m 7.94482,-15.2936 c 0.95159,-0.69581 1.09323,-1.5044 1.09323,-6.24052 0,-4.78451 -0.13543,-5.54015 -1.12229,-6.26177 -0.61727,-0.45135 -1.63101,-0.74772 -2.25277,-0.65859 -1.04149,0.1493 -1.14314,0.64687 -1.29139,6.32097 -0.0885,3.38741 -0.0331,6.49201 0.12312,6.89911 0.37314,0.97238 2.07938,0.9431 3.4501,-0.0592 z m 9.09765,15.65597 c -0.22073,-0.22072 -0.40132,-7.58201 -0.40132,-16.35843 V 8.3334997 h 1.95384 1.95384 l 0.15813,6.8991073 0.15813,6.89911 h 2.25277 2.25277 l 0.2816,-6.75831 0.2816,-6.7583103 h 1.97117 1.97117 v 16.0509803 16.05099 h -1.97117 -1.97117 l -0.2816,-7.03991 -0.2816,-7.0399 h -2.25277 -2.25277 l -0.28159,7.0399 c -0.28131,7.03271 -0.28306,7.04007 -1.71065,7.20656 -0.78599,0.0917 -1.60966,-0.0139 -1.83038,-0.23467 z m 17.31227,-0.36237 c -0.15026,-0.39159 -0.20567,-7.67789 -0.12312,-16.19178 l 0.15009,-15.4798003 1.83038,-0.176482 1.83037,-0.176482 v 16.3682643 16.36826 h -1.70725 c -0.93899,0 -1.8302,-0.32039 -1.98047,-0.71198 z m 8.59458,0.36237 c -0.22073,-0.22072 -0.40132,-7.58201 -0.40132,-16.35843 V 8.3334997 h 3.34592 c 1.84025,0 3.50161,0.251922 3.69191,0.559831 0.70829,1.1460453 2.4226,12.8934863 2.79483,19.1519063 0.6899,11.59918 1.64416,11.28261 2.54652,-0.84479 0.34572,-4.64634 1.06413,-10.72882 1.59646,-13.51662 l 0.96788,-5.0687303 3.31745,-0.171549 c 2.27261,-0.117515 3.46423,0.05987 3.78347,0.563193 0.61385,0.967835 0.60553,30.3638563 -0.009,31.3330263 -0.26972,0.42547 -1.1784,0.66878 -2.10335,0.56319 l -1.62844,-0.18589 0.19413,-14.07981 c 0.22329,-16.19512 -0.43824,-17.7824493 -1.87769,-4.50554 -1.03584,9.55416 -2.38182,17.11937 -3.2315,18.16295 -0.87816,1.07857 -4.24505,0.88306 -4.84945,-0.28159 -0.72799,-1.4028 -2.17489,-10.05598 -2.89579,-17.31817 -0.77664,-7.82389 -1.13859,-9.85587 -1.7556,-9.85587 -0.27128,0 -0.43278,6.25822 -0.35971,13.93901 l 0.13261,13.93902 -1.42905,0.16665 c -0.78599,0.0917 -1.60966,-0.0139 -1.83038,-0.23467 z m -125.60224,-12.80344 c -0.17267,-0.44996 -0.18158,-1.32429 -0.0198,-1.94294 0.16178,-0.61865 -0.2135,-2.27244 -0.83395,-3.67509 -1.2422,-2.8082 -3.07146,-4.06111 -6.79962,-4.65727 -2.8666,-0.45839 -3.04585,-1.72657 -0.31642,-2.23862 5.87116,-1.10143 12.20393,5.5581 10.60082,11.14781 -0.55738,1.94347 -2.10177,2.74536 -2.63104,1.36611 z m -5.7606,-2.15857 c -0.37591,-1.26534 -0.97877,-1.93101 -1.95188,-2.15526 -1.90042,-0.43794 -1.81058,-1.91688 0.13003,-2.14042 2.10907,-0.24295 4.51449,2.15976 4.27108,4.26626 -0.25823,2.23471 -1.78863,2.25309 -2.44923,0.0294 z m 10.39111,1.37261 c -0.026,-0.23232 -0.0893,-1.81629 -0.14079,-3.51995 -0.19206,-6.35821 -3.91791,-10.11045 -10.05699,-10.1282 -5.29917,-0.0153 -5.09296,-2.25321 0.24843,-2.69617 5.35884,-0.44439 10.63145,3.14084 12.16971,8.27506 1.23854,4.13389 0.5467,8.49165 -1.34814,8.49165 -0.45374,0 -0.84624,-0.19007 -0.87222,-0.42239 z"
         id="path29"
         inkscape:connector-curvature="0" />
      <path
         style="fill:#0c5992;stroke-width:0.56319237"
         d="m -297.04677,76.222118 c -0.41152,-0.66586 5.45362,-12.42049 6.20351,-12.43277 0.33218,-0.006 1.98663,0.73899 3.67654,1.65429 1.68993,0.9153 4.56109,2.05189 6.38039,2.52575 1.81929,0.47387 3.35353,0.92881 3.40942,1.01099 0.46475,0.68332 2.64298,6.70771 2.47667,6.8498 -0.52287,0.44671 -21.87909,0.82466 -22.14653,0.39194 z m 17.14497,-11.28007 c -10.46036,-2.10921 -18.58535,-12.31489 -18.58535,-23.34479 0,-4.33684 0.96392,-8.44677 2.54809,-10.86453 l 0.95234,-1.45346 7.69055,7.67583 c 4.2298,4.2217 8.0985,7.67583 8.59711,7.67583 1.19895,0 5.55557,-4.75996 5.55557,-6.0699 0,-2.10629 2.87483,-3.22023 4.3929,-1.70216 1.56779,1.56779 0.39464,4.38728 -1.83037,4.39897 -1.42871,0.007 -5.94168,4.22887 -5.94168,5.55774 0,0.53546 3.07287,4.05274 6.82861,7.81616 4.5194,4.52865 6.71972,7.12635 6.50662,7.68169 -0.83097,2.16548 -11.04496,3.77179 -16.71439,2.62862 z m 40.19745,-14.5043 c -2.50708,-0.4919 -3.68418,-2.59058 -3.78136,-6.7418 -0.088,-3.75755 -0.0556,-3.85216 1.3178,-3.85216 1.32522,0 1.41813,0.19749 1.58051,3.35967 0.20438,3.98017 0.75573,4.80662 3.20663,4.80662 2.65678,0 3.33683,-1.17551 3.29544,-5.69633 -0.042,-4.58671 -0.75407,-5.66699 -4.41011,-6.69062 -3.92336,-1.09848 -4.93994,-2.60189 -5.23773,-7.74604 -0.41082,-7.09667 1.30181,-9.716207 6.3524,-9.716207 3.03603,0 4.76709,0.940875 5.65916,3.075887 1.11207,2.66156 1.09099,7.55519 -0.0344,7.98705 -1.5341,0.58869 -2.46707,-0.89199 -2.64129,-4.19188 -0.14551,-2.75623 -0.36234,-3.28181 -1.65138,-4.00285 -1.3296,-0.74373 -1.63702,-0.72969 -2.95676,0.13504 -1.36773,0.89617 -1.47288,1.26122 -1.47288,5.11363 0,4.97509 0.71381,6.05261 4.70996,7.1099 3.83488,1.01463 4.85944,2.82598 4.8622,8.59607 0.003,5.51066 -0.88636,7.4405 -3.80034,8.24975 -2.14318,0.5952 -2.85678,0.62436 -4.99784,0.20427 z m 14.12333,-0.8877 c -0.15044,-0.39205 -0.20584,-7.42491 -0.12312,-15.62859 l 0.15041,-14.915788 5.20953,-0.161935 c 4.91903,-0.152901 5.20953,-0.09794 5.20953,0.985587 0,1.012306 -0.35687,1.147526 -3.0286,1.147526 -1.91002,0 -3.27048,0.29144 -3.68349,0.78909 -0.41921,0.50512 -0.59604,2.5826 -0.49136,5.77272 l 0.16354,4.98363 3.09756,0.2816 c 2.62823,0.23892 3.09756,0.45226 3.09756,1.40798 0,0.95572 -0.46933,1.16905 -3.09756,1.40798 l -3.09756,0.28159 v 5.63193 5.63192 l 2.25277,0.15011 c 3.79514,0.2529 4.78714,0.63249 4.78714,1.83179 0,1.02973 -0.39177,1.11566 -5.08641,1.11566 -3.58313,0 -5.16725,-0.21067 -5.35994,-0.7128 z m 14.95189,-15.05659 V 18.724074 h 4.53113 c 4.02577,0 4.68116,0.150017 5.8762,1.345054 1.71429,1.71429 2.18349,4.2827 1.87077,10.2407 -0.20344,3.87623 -0.49735,5.09595 -1.58118,6.5619 l -1.33128,1.80065 1.2972,4.80964 c 0.71346,2.64531 1.42355,5.25317 1.57798,5.79524 0.22292,0.7825 -0.0684,0.98559 -1.41382,0.98559 -1.63808,0 -1.72727,-0.13618 -2.67439,-4.08315 -1.31094,-5.46307 -2.28787,-7.74389 -3.31693,-7.74389 -1.44876,0 -2.01972,1.97966 -2.01972,7.00288 0,4.77031 -0.0157,4.82416 -1.40798,4.82416 h -1.40798 z m 7.98114,0.19431 c 0.85489,-0.77366 1.02993,-1.80826 1.02993,-6.08747 0,-5.59171 -0.46123,-6.77083 -2.87579,-7.35176 -2.63481,-0.63394 -3.31932,0.77773 -3.31932,6.84546 0,2.94092 0.26235,5.83734 0.583,6.43649 0.72326,1.35141 3.16988,1.43539 4.58218,0.15728 z m 8.34669,14.58949 c -0.003,-0.54207 0.79808,-7.63829 1.77931,-15.76938 l 1.78405,-14.783804 h 3.0255 c 1.91014,0 3.11868,0.25953 3.27826,0.70399 0.30027,0.836374 3.65424,28.118824 3.65424,29.725024 0,0.7927 -0.38214,1.10976 -1.33758,1.10976 -1.40494,0 -2.04157,-1.59 -2.04157,-5.0989 0,-2.33467 -1.46766,-3.53238 -3.85399,-3.14513 -2.39772,0.3891 -2.88455,1.08089 -2.8957,4.11482 -0.004,1.29113 -0.16245,2.74839 -0.35047,3.23836 -0.48102,1.25351 -3.03594,1.17394 -3.04205,-0.0947 z m 8.60781,-16.47337 c -0.17278,-8.85205 -0.55825,-11.3773 -1.70301,-11.15673 -0.49804,0.096 -1.08406,0.84207 -1.30227,1.65801 -0.60373,2.2575 -1.2657,14.95754 -0.81746,15.68281 0.21676,0.35073 1.194,0.56006 2.17164,0.46516 l 1.77752,-0.17254 z m 9.41909,1.72698 V 18.724074 h 4.47414 c 3.91764,0 4.67067,0.169059 6.05432,1.359224 1.57682,1.35632 1.58018,1.37439 1.58018,8.49664 0,7.12226 -0.003,7.14032 -1.58018,8.49665 -1.04682,0.90043 -2.28246,1.36213 -3.66075,1.36784 -1.14432,0.005 -2.38714,0.20346 -2.76182,0.44158 -0.43363,0.27558 -0.74069,2.37074 -0.84479,5.7641 l -0.16354,5.33114 -1.54878,0.17821 -1.54878,0.1782 z m 8.33858,0.27295 c 0.9443,-0.89253 1.4943,-6.197 0.99073,-9.55507 -0.45539,-3.03672 -2.23328,-4.62013 -4.53807,-4.04166 -1.40861,0.35354 -1.41208,0.37092 -1.41208,7.074 0,5.80722 0.13382,6.79692 0.98558,7.28904 1.09583,0.63315 2.85136,0.29461 3.97384,-0.76631 z m 8.55719,-0.31036 V 18.724074 h 1.40798 1.40799 v 6.407754 c 0,7.2661 0.29195,7.85335 3.76224,7.5676 l 2.15128,-0.17714 0.15813,-6.89911 0.15813,-6.899104 h 1.67224 1.67225 v 15.806794 15.80679 l -1.54878,-0.1782 -1.54878,-0.17821 -0.2816,-7.0399 -0.28159,-7.03991 -2.15128,-0.17714 c -3.49233,-0.28756 -3.76224,0.27556 -3.76224,7.8492 v 6.68935 h -1.40799 -1.40798 z m 17.45897,0 V 18.649259 l 1.54878,0.178206 1.54878,0.178205 v 15.487788 15.48779 l -1.54878,0.17821 -1.54878,0.1782 z m 8.44788,0 V 18.724074 h 3.09756 c 1.70366,0 3.09761,0.06336 3.09766,0.140798 5e-5,0.07744 0.39748,2.168286 0.88317,4.646336 0.48569,2.47805 1.20613,8.6263 1.60097,13.66277 0.39484,5.03649 0.87351,9.31286 1.06371,9.50305 0.1902,0.1902 0.70775,0.20693 1.15011,0.0372 0.60577,-0.23245 0.89991,-2.02195 1.19173,-7.25028 0.2131,-3.8179 0.87585,-9.88432 1.47277,-13.48092 0.59693,-3.59659 1.08533,-6.713838 1.08533,-6.927204 0,-0.21336 1.45726,-0.311924 3.23835,-0.219025 l 3.23836,0.168901 v 15.487788 15.48779 l -1.61911,0.185 -1.61911,0.18499 0.41552,-14.4056 c 0.36912,-12.79732 0.31833,-14.4056 -0.45492,-14.4056 -1.17244,0 -1.30026,0.5906 -2.37686,10.98225 -0.51346,4.95609 -1.36054,10.91185 -1.8824,13.23502 l -0.94883,4.22394 -2.04522,0.17195 c -1.57512,0.13242 -2.1162,-0.0618 -2.354,-0.84479 -0.90897,-2.993 -1.61407,-7.47768 -2.62108,-16.6708 -0.61489,-5.61345 -1.34713,-10.43543 -1.62719,-10.71549 -1.484,-1.484 -1.68042,0.6082 -1.34066,14.28065 l 0.34939,14.06008 h -1.49762 -1.49763 z m -125.22181,2.95676 c -0.14277,-0.23231 -0.2591,-1.33636 -0.25852,-2.45342 0.002,-4.44827 -3.40257,-7.81885 -7.9024,-7.82273 -1.70517,-0.002 -2.36767,-0.21422 -2.19881,-0.7061 0.15466,-0.45049 1.35832,-0.70029 3.34259,-0.69372 2.53557,0.008 3.48639,0.30428 5.21533,1.62302 2.29255,1.74861 3.68449,4.4052 3.68449,7.03204 0,2.70941 -1.04432,4.38511 -1.88268,3.02091 z m -6.18388,-2.3173 c -0.25067,-1.25333 -0.71701,-1.69218 -2.08997,-1.96677 -1.92972,-0.38595 -2.0516,-1.65858 -0.18541,-1.93609 1.77028,-0.26324 4.14682,1.9532 4.14682,3.86747 0,2.1604 -1.44099,2.18764 -1.87144,0.0354 z m 10.70652,1.24959 c -0.21296,-0.21296 -0.39136,-1.80222 -0.39645,-3.53169 -0.0184,-6.23443 -4.12025,-10.1844 -10.57607,-10.1844 -3.49879,0 -3.87885,-1.18908 -0.55286,-1.7297 4.64114,-0.7544 10.16527,2.21485 12.30605,6.61457 1.73523,3.56621 1.10327,10.71515 -0.78067,8.83122 z"
         id="path27"
         inkscape:connector-curvature="0" />
      <path
         style="fill:#2a476b;stroke-width:0.56319237"
         d="m -284.89459,268.32614 c -0.46033,-0.74481 5.34165,-12.51186 6.17564,-12.52489 1.20131,-0.0188 5.84366,2.90441 5.84366,3.6796 0,0.42747 0.73913,1.53334 1.64251,2.45748 3.23037,3.30462 2.75374,6.24327 -1.01261,6.24327 -1.18054,0 -4.4295,0.16206 -7.21992,0.36013 -3.23791,0.22983 -5.20221,0.15183 -5.42928,-0.21559 z m 7.17647,-16.18256 c -3.0749,-2.579 -6.13961,-7.14381 -7.53566,-11.22418 -1.94861,-5.6954 -1.30354,-14.03344 1.40556,-18.16806 l 0.94795,-1.44674 3.01258,2.97516 c 2.10915,2.08295 3.06343,3.49016 3.18212,4.69247 0.1425,1.44352 0.46859,1.77796 2.04534,2.09775 1.97747,0.40106 5.33102,3.15755 4.82924,3.96945 -0.16215,0.26236 -1.35696,0.48047 -2.65514,0.4847 -3.94618,0.0128 -4.84807,0.50092 -6.33011,3.42561 -0.7593,1.4984 -1.38055,3.246 -1.38055,3.88354 0,1.43649 3.52513,8.53156 4.73964,9.53951 0.93235,0.77379 1.19578,1.73692 0.46989,1.71798 -0.23232,-0.006 -1.4612,-0.8823 -2.73086,-1.94719 z m 18.78184,-2.02168 c -1.04459,-0.61644 -1.45916,-5.03119 -0.47245,-5.03119 0.88825,0 3.49097,3.48733 3.30878,4.43337 -0.21299,1.10601 -1.51142,1.37968 -2.83633,0.59782 z m 31.32717,-7.67225 c -2.50708,-0.4919 -3.68418,-2.59058 -3.78136,-6.7418 -0.088,-3.75755 -0.0556,-3.85216 1.3178,-3.85216 1.32522,0 1.41813,0.19749 1.58051,3.35967 0.20438,3.98017 0.75573,4.80662 3.20663,4.80662 2.65678,0 3.33683,-1.17551 3.29544,-5.69633 -0.042,-4.58671 -0.75407,-5.66699 -4.41011,-6.69062 -3.92336,-1.09848 -4.93994,-2.60189 -5.23773,-7.74604 -0.41082,-7.09667 1.30181,-9.7162 6.3524,-9.7162 3.03603,0 4.76709,0.94087 5.65916,3.07588 1.11207,2.66156 1.09099,7.55519 -0.0344,7.98705 -1.5341,0.58869 -2.46707,-0.89199 -2.64129,-4.19188 -0.14551,-2.75623 -0.36234,-3.28181 -1.65138,-4.00285 -1.3296,-0.74373 -1.63702,-0.72969 -2.95676,0.13504 -1.36773,0.89617 -1.47288,1.26122 -1.47288,5.11363 0,4.97509 0.71381,6.05261 4.70996,7.1099 3.83488,1.01463 4.85944,2.82598 4.8622,8.59607 0.003,5.51066 -0.88636,7.4405 -3.80034,8.24975 -2.14318,0.5952 -2.85678,0.62436 -4.99784,0.20427 z m 14.12333,-0.8877 c -0.15044,-0.39205 -0.20584,-7.42491 -0.12312,-15.62859 l 0.15041,-14.91579 5.20953,-0.16193 c 4.91903,-0.1529 5.20953,-0.0979 5.20953,0.98559 0,1.0123 -0.35687,1.14752 -3.0286,1.14752 -1.91002,0 -3.27048,0.29144 -3.68349,0.78909 -0.41921,0.50512 -0.59604,2.5826 -0.49136,5.77272 l 0.16354,4.98363 3.09756,0.2816 c 2.62823,0.23892 3.09756,0.45226 3.09756,1.40798 0,0.95572 -0.46933,1.16905 -3.09756,1.40798 l -3.09756,0.28159 v 5.63193 5.63192 l 2.25277,0.15011 c 3.79514,0.2529 4.78714,0.63249 4.78714,1.83179 0,1.02973 -0.39177,1.11566 -5.08641,1.11566 -3.58313,0 -5.16725,-0.21067 -5.35994,-0.7128 z m 14.95189,-15.05659 v -15.76938 h 4.53113 c 4.02577,0 4.68116,0.15002 5.8762,1.34505 1.71429,1.71429 2.18349,4.2827 1.87077,10.2407 -0.20344,3.87623 -0.49735,5.09595 -1.58118,6.5619 l -1.33128,1.80065 1.2972,4.80964 c 0.71346,2.64531 1.42355,5.25317 1.57798,5.79524 0.22292,0.7825 -0.0684,0.98559 -1.41382,0.98559 -1.63808,0 -1.72727,-0.13618 -2.67439,-4.08315 -1.31094,-5.46307 -2.28787,-7.74389 -3.31693,-7.74389 -1.44876,0 -2.01972,1.97966 -2.01972,7.00288 0,4.77031 -0.0157,4.82416 -1.40798,4.82416 h -1.40798 z m 7.98114,0.19431 c 0.85489,-0.77366 1.02993,-1.80826 1.02993,-6.08747 0,-5.59171 -0.46123,-6.77083 -2.87579,-7.35176 -2.63481,-0.63394 -3.31932,0.77773 -3.31932,6.84546 0,2.94092 0.26235,5.83734 0.583,6.43649 0.72326,1.35141 3.16988,1.43539 4.58218,0.15728 z m 8.34669,14.58949 c -0.003,-0.54207 0.79808,-7.63829 1.77931,-15.76938 l 1.78405,-14.7838 h 3.0255 c 1.91014,0 3.11868,0.25953 3.27826,0.70399 0.30027,0.83637 3.65424,28.11882 3.65424,29.72502 0,0.7927 -0.38214,1.10976 -1.33758,1.10976 -1.40494,0 -2.04157,-1.59 -2.04157,-5.0989 0,-2.33467 -1.46766,-3.53238 -3.85399,-3.14513 -2.39772,0.3891 -2.88455,1.08089 -2.8957,4.11482 -0.004,1.29113 -0.16245,2.74839 -0.35047,3.23836 -0.48102,1.25351 -3.03594,1.17394 -3.04205,-0.0947 z m 8.60781,-16.47337 c -0.17278,-8.85205 -0.55825,-11.3773 -1.70301,-11.15673 -0.49804,0.096 -1.08406,0.84207 -1.30227,1.65801 -0.60373,2.2575 -1.2657,14.95754 -0.81746,15.68281 0.21676,0.35073 1.194,0.56006 2.17164,0.46516 l 1.77752,-0.17254 z m 9.41909,1.72698 v -15.80679 h 4.47414 c 3.91764,0 4.67067,0.16906 6.05432,1.35922 1.57682,1.35632 1.58018,1.37439 1.58018,8.49664 0,7.12226 -0.003,7.14032 -1.58018,8.49665 -1.04682,0.90043 -2.28246,1.36213 -3.66075,1.36784 -1.14432,0.005 -2.38714,0.20346 -2.76182,0.44158 -0.43363,0.27558 -0.74069,2.37074 -0.84479,5.7641 l -0.16354,5.33114 -1.54878,0.17821 -1.54878,0.1782 z m 8.33858,0.27295 c 0.9443,-0.89253 1.4943,-6.197 0.99073,-9.55507 -0.45539,-3.03672 -2.23328,-4.62013 -4.53807,-4.04166 -1.40861,0.35354 -1.41208,0.37092 -1.41208,7.074 0,5.80722 0.13382,6.79692 0.98558,7.28904 1.09583,0.63315 2.85136,0.29461 3.97384,-0.76631 z m 8.55719,-0.31036 v -15.76938 h 1.40798 1.40799 v 6.40775 c 0,7.2661 0.29195,7.85335 3.76224,7.5676 l 2.15128,-0.17714 0.15813,-6.89911 0.15813,-6.8991 h 1.67224 1.67225 v 15.80679 15.80679 l -1.54878,-0.1782 -1.54878,-0.17821 -0.2816,-7.0399 -0.28159,-7.03991 -2.15128,-0.17714 c -3.49233,-0.28756 -3.76224,0.27556 -3.76224,7.8492 v 6.68935 h -1.40799 -1.40798 z m 17.45897,0 v -15.8442 l 1.54878,0.17821 1.54878,0.1782 v 15.48779 15.48779 l -1.54878,0.17821 -1.54878,0.1782 z m 8.44788,0 v -15.76938 h 3.09756 c 1.70366,0 3.09761,0.0634 3.09766,0.1408 5e-5,0.0774 0.39748,2.16828 0.88317,4.64633 0.48569,2.47805 1.20613,8.6263 1.60097,13.66277 0.39484,5.03649 0.87351,9.31286 1.06371,9.50305 0.1902,0.1902 0.70775,0.20693 1.15011,0.0372 0.60577,-0.23245 0.89991,-2.02195 1.19173,-7.25028 0.2131,-3.8179 0.87585,-9.88432 1.47277,-13.48092 0.59693,-3.59659 1.08533,-6.71384 1.08533,-6.9272 0,-0.21336 1.45726,-0.31193 3.23835,-0.21903 l 3.23836,0.1689 v 15.48779 15.48779 l -1.61911,0.185 -1.61911,0.18499 0.41552,-14.4056 c 0.36912,-12.79732 0.31833,-14.4056 -0.45492,-14.4056 -1.17244,0 -1.30026,0.5906 -2.37686,10.98225 -0.51346,4.95609 -1.36054,10.91185 -1.8824,13.23502 l -0.94883,4.22394 -2.04522,0.17195 c -1.57512,0.13242 -2.1162,-0.0618 -2.354,-0.84479 -0.90897,-2.993 -1.61407,-7.47768 -2.62108,-16.6708 -0.61489,-5.61345 -1.34713,-10.43543 -1.62719,-10.71549 -1.484,-1.484 -1.68042,0.6082 -1.34066,14.28065 l 0.34939,14.06008 h -1.49762 -1.49763 z m -143.22847,9.77213 c -0.34025,-0.34026 1.92621,-3.31484 4.7638,-6.25217 1.38789,-1.43667 2.73531,-1.66281 2.73531,-0.45906 0,1.51013 -1.09551,3.69741 -1.85187,3.69741 -0.41435,0 -1.48178,0.76031 -2.37208,1.68958 -1.59014,1.65975 -2.5511,2.0483 -3.27516,1.32424 z m 18.00666,-6.81537 c -0.14277,-0.23231 -0.2591,-1.36933 -0.25852,-2.5267 0.002,-2.98045 -1.6861,-5.56625 -4.59533,-7.04106 -3.76238,-1.90732 -4.15523,-2.60151 -1.26788,-2.2404 4.39693,0.5499 8.00441,4.5102 8.00441,8.78725 0,2.70941 -1.04432,4.38511 -1.88268,3.02091 z m 4.52264,-1.06771 c -0.21296,-0.21296 -0.39136,-1.80222 -0.39645,-3.53169 -0.0177,-6.01342 -4.14866,-10.1844 -10.08663,-10.1844 -2.36499,0 -2.47262,-0.0631 -1.5986,-0.9371 2.97666,-2.97667 11.81235,1.63633 13.4052,6.99869 1.13194,3.81067 0.20332,9.18132 -1.32352,7.6545 z"
         id="path25"
         inkscape:connector-curvature="0" />
      <path
         style="fill:#1b365b;stroke-width:0.56319237"
         d="m -277.14281,343.7666 c 0,-0.4214 0.67315,-1.75195 1.49588,-2.95676 0.82273,-1.2048 2.10849,-3.5211 2.85725,-5.14732 0.74875,-1.62622 1.48774,-2.95676 1.64219,-2.95676 0.15445,0 1.38105,0.64478 2.72578,1.43284 3.0301,1.77576 7.25335,7.1713 6.78016,8.66219 -0.46015,1.44979 -1.87234,1.71547 -9.16535,1.72432 -4.97138,0.006 -6.33591,-0.15732 -6.33591,-0.75851 z m 5.17624,-18.62783 c -3.55879,-3.74649 -4.13021,-4.66955 -5.42193,-8.75856 -1.74923,-5.5373 -1.81184,-8.51344 -0.276,-13.11902 1.74845,-5.24312 2.07525,-5.38576 5.12179,-2.23554 1.42319,1.47164 2.8288,3.43601 3.12358,4.36528 0.30517,0.96206 1.00086,1.77329 1.61567,1.884 1.1297,0.20343 4.74046,3.35682 4.74046,4.14 0,0.24899 -0.95039,0.45617 -2.11197,0.4604 -3.68072,0.0134 -4.62106,0.54306 -6.08175,3.42561 -0.7593,1.4984 -1.38055,3.40926 -1.38055,4.24634 0,1.49174 2.6652,6.84639 4.37696,8.79374 0.47649,0.54207 0.73257,0.98559 0.56906,0.98559 -0.1635,0 -2.0874,-1.88453 -4.27532,-4.18784 z m 20.16742,-1.19573 c 0,-0.48292 0.25343,-0.7214 0.56319,-0.52995 0.30976,0.19144 0.56319,0.58655 0.56319,0.87802 0,0.29148 -0.25343,0.52996 -0.56319,0.52996 -0.30976,0 -0.56319,-0.39512 -0.56319,-0.87803 z m 31.6657,-5.69272 c -1.88412,-0.39643 -3.00632,-2.52505 -3.35429,-6.36254 -0.28957,-3.19348 -0.2353,-3.39929 0.89637,-3.39929 1.09522,0 1.20461,0.30319 1.20461,3.33892 0,4.02167 0.84336,5.10896 3.96275,5.10896 2.82994,0 3.5221,-1.23712 3.49078,-6.23921 -0.031,-4.95535 -0.60719,-5.88818 -4.36938,-7.07411 -4.3279,-1.36425 -4.99649,-2.28759 -5.24688,-7.24603 -0.34841,-6.89962 1.14993,-9.28985 5.82348,-9.28985 3.00176,0 4.72282,1.06166 5.40009,3.33113 0.82879,2.77715 0.47672,6.52474 -0.61296,6.52474 -0.63497,0 -0.91472,-0.90588 -1.12638,-3.64734 -0.24556,-3.18054 -0.4618,-3.73983 -1.68958,-4.37004 -1.65727,-0.85067 -3.93543,-0.46495 -4.92793,0.83435 -0.42441,0.5556 -0.70399,2.66817 -0.70399,5.3195 0,3.64698 0.19232,4.59022 1.12638,5.52428 0.61951,0.61951 1.50141,1.12639 1.95978,1.12639 1.86005,0 5.24234,1.82439 5.84843,3.15461 0.35182,0.77216 0.63968,3.40536 0.63968,5.85156 0,3.81339 -0.18071,4.65146 -1.26719,5.87698 -1.29656,1.46248 -4.42861,2.18934 -7.05377,1.63699 z m 14.51607,-15.39376 v -15.2062 h 4.78714 c 2.81596,0 4.78713,0.2319 4.78713,0.5632 0,0.30976 -1.15712,0.56319 -2.57139,0.56319 -4.45564,0 -4.75011,0.39575 -4.75011,6.38389 0,3.30743 0.24745,5.46532 0.67583,5.89371 0.37171,0.3717 1.89233,0.67583 3.37916,0.67583 2.02749,0 2.70332,0.2112 2.70332,0.84479 0,0.63545 -0.68068,0.84479 -2.747,0.84479 -1.66524,0 -3.00425,0.30995 -3.40024,0.7871 -0.42471,0.51175 -0.59661,2.72833 -0.49136,6.33592 l 0.16189,5.5488 3.33531,0.2816 c 1.94974,0.16462 3.43151,0.57405 3.56688,0.98559 0.1732,0.5265 -0.98719,0.70399 -4.60249,0.70399 h -4.83407 z m 15.2062,0 v -15.2062 h 4.22394 c 6.3993,0 7.42108,1.62406 6.92833,11.01222 -0.20437,3.89358 -0.47087,4.98667 -1.47687,6.05751 -0.67514,0.71865 -1.22752,1.79797 -1.22752,2.3985 0,0.93469 1.23292,5.71727 2.51618,9.76048 0.29611,0.93297 0.13754,1.18369 -0.74868,1.18369 -1.14609,0 -1.68641,-1.3303 -3.49109,-8.59515 -0.53042,-2.13523 -0.95693,-2.7546 -2.09327,-3.0398 -2.27126,-0.57006 -2.94144,0.95052 -2.94144,6.67386 0,4.03439 -0.15781,4.96109 -0.84479,4.96109 -0.73007,0 -0.84479,-2.06504 -0.84479,-15.2062 z m 7.88469,0.5632 c 0.96643,-0.96644 1.12639,-1.87731 1.12639,-6.41433 0,-5.94883 -0.68319,-7.43449 -3.66075,-7.96066 -2.99744,-0.5297 -3.35961,0.17858 -3.56837,6.97857 -0.11786,3.83938 0.0489,6.60801 0.44221,7.34299 0.8455,1.57982 4.10337,1.61057 5.66052,0.0534 z m 8.45158,13.6987 c 0.002,-0.56478 0.75807,-7.10935 1.68007,-14.54349 0.92201,-7.43414 1.68065,-13.83342 1.68589,-14.22061 0.006,-0.46806 0.95323,-0.704 2.82546,-0.704 1.87534,0 2.8172,0.23516 2.81966,0.704 0.002,0.38719 0.75806,6.78647 1.68007,14.22061 0.92201,7.43414 1.68065,13.96013 1.68588,14.5022 0.0173,1.79291 -1.61602,1.0704 -1.90973,-0.84479 -0.95876,-6.25179 -0.80682,-5.91209 -2.81266,-6.28839 -3.90525,-0.73263 -5.20285,0.57499 -5.53705,5.57972 -0.10816,1.6198 -0.42555,2.30028 -1.1357,2.43486 -0.64748,0.12271 -0.98431,-0.1655 -0.98189,-0.84011 z m 8.36991,-9.13534 c 0.62359,-0.39505 0.69145,-1.90945 0.35587,-7.94269 -0.51766,-9.30684 -0.79002,-10.41889 -2.55179,-10.41889 -1.68391,0 -1.95622,1.17042 -2.51127,10.79376 -0.32843,5.69426 -0.25848,7.18205 0.35599,7.57139 0.98599,0.62475 3.36246,0.6228 4.3512,-0.003 z m 9.64855,-5.12656 v -15.2062 h 4.16156 c 3.2583,0 4.45012,0.23368 5.49112,1.07664 1.27076,1.029 1.32958,1.39242 1.32958,8.21604 0,6.82362 -0.0588,7.18705 -1.32958,8.21605 -0.73571,0.59574 -2.19869,1.07663 -3.27538,1.07663 -3.78656,0 -4.12453,0.53232 -4.12453,6.49652 0,4.95505 -0.0793,5.33052 -1.12638,5.33052 -1.09858,0 -1.12639,-0.37547 -1.12639,-15.2062 z m 8.52555,0.43754 c 1.27101,-2.05653 1.18737,-10.46373 -0.12856,-12.92279 -0.65962,-1.23264 -3.51783,-1.83414 -4.9848,-1.04904 -1.07548,0.57557 -1.15942,1.13006 -1.15942,7.65874 0,6.77597 0.047,7.05563 1.26199,7.50508 1.45745,0.53914 4.36894,-0.15346 5.01079,-1.19199 z m 8.37023,-0.43754 c 0,-13.14115 0.11472,-15.2062 0.84478,-15.2062 0.69883,0 0.84479,1.05185 0.84479,6.08748 0,7.50429 0.33867,8.13391 4.2426,7.88739 l 2.79731,-0.17665 0.15813,-6.8991 c 0.14748,-6.43418 0.23288,-6.89912 1.26718,-6.89912 1.07589,0 1.10905,0.45469 1.10905,15.2062 0,14.75387 -0.033,15.2062 -1.10955,15.2062 -1.0377,0 -1.11977,-0.4651 -1.26719,-7.18071 l -0.15762,-7.1807 -2.79731,-0.17664 c -3.9287,-0.24809 -4.2426,0.35632 -4.2426,8.16898 0,5.28593 -0.14366,6.36907 -0.84479,6.36907 -0.73006,0 -0.84478,-2.06504 -0.84478,-15.2062 z m 17.45896,0 c 0,-14.83073 0.0278,-15.2062 1.12639,-15.2062 1.09857,0 1.12638,0.37547 1.12638,15.2062 0,14.83073 -0.0278,15.2062 -1.12638,15.2062 -1.09858,0 -1.12639,-0.37547 -1.12639,-15.2062 z m 8.44789,0 v -15.2062 h 2.49641 c 1.8923,0 2.56615,0.23851 2.78456,0.98559 0.83645,2.861 1.61976,8.73703 2.29734,17.23361 0.41902,5.25435 1.04022,9.77317 1.39187,10.12481 0.45929,0.45929 0.90362,0.4663 1.60517,0.0254 0.80153,-0.50382 1.08414,-2.16524 1.62643,-9.56162 0.36099,-4.92351 1.057588,-11.10605 1.548008,-13.73898 0.49042,-2.63292 0.89201,-4.8505 0.89244,-4.92793 4.2e-4,-0.0775 1.26795,-0.14083 2.81673,-0.14083 h 2.81596 v 15.2062 c 0,15.10159 -0.008,15.2062 -1.18997,15.2062 h -1.18997 l 0.41424,-14.36141 0.41424,-14.3614 h -1.46631 c -1.77838,0 -1.73356,-0.17523 -2.88109,11.26384 -0.48165,4.80122 -1.291698,10.70673 -1.800138,13.12337 l -0.92441,4.39387 -1.73261,-0.16993 c -1.60395,-0.15732 -1.78439,-0.39995 -2.42994,-3.2675 -0.38354,-1.70365 -1.22647,-7.91285 -1.87318,-13.79821 -0.64672,-5.88536 -1.38761,-10.9145 -1.64642,-11.17587 -0.25881,-0.26136 -0.941,-0.38349 -1.51597,-0.2714 -0.99249,0.19349 -1.0342,0.92324 -0.82389,14.41422 0.20105,12.89677 0.13597,14.21042 -0.70399,14.21042 -0.83571,0 -0.92551,-1.47556 -0.92551,-15.2062 z m -139.67172,5.70088 c 0,-0.70991 1.65324,-1.9826 2.05436,-1.58148 0.57674,0.57674 -0.28398,2.07572 -1.1919,2.07572 -0.47435,0 -0.86246,-0.22241 -0.86246,-0.49424 z m 18.58535,-6.91372 c 0,-1.90967 -0.47116,-3.89838 -1.37752,-5.81424 -1.50908,-3.18995 -3.44767,-4.4367 -8.19675,-5.27155 -2.10104,-0.36934 -2.32244,-0.51653 -1.29487,-0.86091 3.03727,-1.01791 9.29568,2.50929 11.15914,6.28921 1.15978,2.35254 1.64119,5.26782 1.17598,7.12135 -0.61295,2.4422 -1.46598,1.5904 -1.46598,-1.46386 z m -5.56375,-2.14783 c -1.08527,-2.23054 -1.83428,-2.97191 -3.94235,-3.9021 -1.43139,-0.63161 -2.11793,-1.15664 -1.52563,-1.16675 2.88826,-0.0493 7.65258,4.30477 7.65258,6.99357 0,1.59264 -0.82832,0.86286 -2.1846,-1.92472 z"
         id="path23"
         inkscape:connector-curvature="0" />
    </g>
    <path
       style="opacity:1;fill:url(#linearGradient1047);fill-opacity:1;stroke:#03045e;stroke-width:0.30000001;stroke-linecap:square;stroke-linejoin:round;stroke-miterlimit:4;stroke-dasharray:none;stroke-dashoffset:0;stroke-opacity:1"
       d="m 6.7657902,51.561164 c 0.94493,-0.18899 25.0408948,0.0945 25.0408948,0.0945 l -3.968746,-8.88244 c -5.59622,-0.28034 -10.15143,-2.49397 -13.9851,-6.04762 z"
       id="path39"
       inkscape:connector-curvature="0"
       sodipodi:nodetypes="ccccc" />
    <path
       style="fill:url(#linearGradient1049);stroke:none;stroke-width:0.26458332px;stroke-linecap:butt;stroke-linejoin:miter;stroke-opacity:1;fill-opacity:1"
       d="m 11.906267,5.8638373 c -4.19498,8.4825967 -5.2316021,20.8827477 4.25223,30.8050547 9.969085,8.479368 28.125256,3.60467 29.198646,2.45685 L 30.40844,24.261488 27.91251,21.779657 Z"
       id="path41"
       inkscape:connector-curvature="0"
       sodipodi:nodetypes="cccccc" />
    <path
       style="fill:url(#linearGradient1051);fill-opacity:1;stroke:none;stroke-width:0.26458332px;stroke-linecap:butt;stroke-linejoin:miter;stroke-opacity:1"
       d="m 28.089831,22.011401 c 0.23386,-0.13364 5.034692,-4.930287 5.034692,-4.930287 -1.137636,-1.97267 0.25208,-3.93531 1.32666,-4.5855 1.14541,-0.88426 3.81207,-0.70179 4.66936,1.11674 1.32581,1.72396 -0.0868,4.1787 -0.0868,4.1787 -0.80488,0.87417 -1.41865,1.84602 -3.73783,0.99652 l -5.095608,5.285264 z"
       id="path43"
       inkscape:connector-curvature="0"
       sodipodi:nodetypes="cccccccc" />
    <rect
       style="opacity:1;fill:#03045e;fill-opacity:1;stroke:none;stroke-width:0.73647952;stroke-linejoin:round;stroke-miterlimit:4;stroke-dasharray:none;stroke-opacity:1"
       id="rect45"
       width="12.027128"
       height="44.901276"
       x="73.766388"
       y="9.952527" />
    <rect
       y="9.952527"
       x="85.793518"
       height="44.901276"
       width="12.027128"
       id="rect852"
       style="opacity:1;fill:#023e8a;fill-opacity:1;stroke:none;stroke-width:0.73647952;stroke-linejoin:round;stroke-miterlimit:4;stroke-dasharray:none;stroke-opacity:1" />
    <rect
       style="opacity:1;fill:#0077b6;fill-opacity:1;stroke:none;stroke-width:0.73647952;stroke-linejoin:round;stroke-miterlimit:4;stroke-dasharray:none;stroke-opacity:1"
       id="rect854"
       width="12.027128"
       height="44.901276"
       x="97.820648"
       y="9.952527" />
    <rect
       y="9.952527"
       x="109.84778"
       height="44.901276"
       width="12.027128"
       id="rect856"
       style="opacity:1;fill:#0096c7;fill-opacity:1;stroke:none;stroke-width:0.73647952;stroke-linejoin:round;stroke-miterlimit:4;stroke-dasharray:none;stroke-opacity:1" />
    <rect
       style="opacity:1;fill:#00b4d8;fill-opacity:1;stroke:none;stroke-width:0.73647952;stroke-linejoin:round;stroke-miterlimit:4;stroke-dasharray:none;stroke-opacity:1"
       id="rect858"
       width="12.027128"
       height="44.901276"
       x="121.87491"
       y="9.952527" />
    <rect
       y="9.952527"
       x="133.90204"
       height="44.901276"
       width="12.027128"
       id="rect860"
       style="opacity:1;fill:#48cae4;fill-opacity:1;stroke:none;stroke-width:0.73647952;stroke-linejoin:round;stroke-miterlimit:4;stroke-dasharray:none;stroke-opacity:1" />
    <rect
       style="opacity:1;fill:#90e0ef;fill-opacity:1;stroke:none;stroke-width:0.73647952;stroke-linejoin:round;stroke-miterlimit:4;stroke-dasharray:none;stroke-opacity:1"
       id="rect862"
       width="12.027128"
       height="44.901276"
       x="145.92915"
       y="9.952527" />
    <rect
       y="9.952527"
       x="157.95628"
       height="44.901276"
       width="12.027128"
       id="rect864"
       style="opacity:1;fill:#ade8f4;fill-opacity:1;stroke:none;stroke-width:0.73647952;stroke-linejoin:round;stroke-miterlimit:4;stroke-dasharray:none;stroke-opacity:1" />
    <rect
       style="opacity:1;fill:#caf0f8;fill-opacity:1;stroke:none;stroke-width:0.73647952;stroke-linejoin:round;stroke-miterlimit:4;stroke-dasharray:none;stroke-opacity:1"
       id="rect866"
       width="12.027128"
       height="44.901276"
       x="169.98341"
       y="9.952527" />
    <path
       style="fill:#03045e;fill-opacity:1;stroke:none;stroke-width:0.26458332px;stroke-linecap:butt;stroke-linejoin:miter;stroke-opacity:1"
       d="M 14.065059,8.0148228 9.9787582,10.839945 14.53278,13.092944 Z"
       id="path881"
       inkscape:connector-curvature="0"
       sodipodi:nodetypes="cccc" />
    <path
       inkscape:connector-curvature="0"
       id="path883"
       d="m 14.53278,13.092944 -4.109269,2.772921 4.57699,2.3052 z"
       style="fill:#03045e;stroke:none;stroke-width:0.26458332px;stroke-linecap:butt;stroke-linejoin:miter;stroke-opacity:1;fill-opacity:1" />
    <path
       style="fill:#03045e;fill-opacity:1;stroke:none;stroke-width:0.26458332px;stroke-linecap:butt;stroke-linejoin:miter;stroke-opacity:1"
       d="m 18.180174,12.109058 -0.884037,-0.880818 -2.763357,1.864704 4.57699,2.3052 -0.238694,-2.591541 z"
       id="path885"
       inkscape:connector-curvature="0"
       sodipodi:nodetypes="cccccc" />
    <path
       inkscape:connector-curvature="0"
       id="path887"
       d="m 19.10977,15.398144 -4.109269,2.772921 4.57699,2.3052 z"
       style="fill:#03045e;stroke:none;stroke-width:0.26458332px;stroke-linecap:butt;stroke-linejoin:miter;stroke-opacity:1;fill-opacity:1" />
    <path
       style="fill:#03045e;stroke:none;stroke-width:0.26458332px;stroke-linecap:butt;stroke-linejoin:miter;stroke-opacity:1;fill-opacity:1"
       d="m 15.000501,18.171065 -4.109269,2.772921 4.57699,2.3052 z"
       id="path889"
       inkscape:connector-curvature="0" />
    <path
       inkscape:connector-curvature="0"
       id="path891"
       d="m 10.423511,15.865865 -1.5479276,1.044536 0.01397,3.02544 2.0016785,1.008145 z"
       style="fill:#03045e;fill-opacity:1;stroke:none;stroke-width:0.26458332px;stroke-linecap:butt;stroke-linejoin:miter;stroke-opacity:1"
       sodipodi:nodetypes="ccccc" />
    <path
       style="fill:#03045e;fill-opacity:1;stroke:none;stroke-width:0.26458332px;stroke-linecap:butt;stroke-linejoin:miter;stroke-opacity:1"
       d="m 9.9787582,10.839945 c -0.4302654,1.60206 -0.4066775,1.604099 -0.7078467,3.271963 l 1.1525995,1.753957 z"
       id="path893"
       inkscape:connector-curvature="0"
       sodipodi:nodetypes="cccc" />
    <path
       inkscape:connector-curvature="0"
       id="path895"
       d="M 11.906267,5.8638373 C 11.675158,6.2308355 11.528489,6.6159567 11.341416,7.071027 l 2.723643,0.9437958 C 13.298829,7.2595469 12.703355,6.5573984 11.906267,5.8638373 Z"
       style="fill:#03045e;fill-opacity:1;stroke:none;stroke-width:0.26458332px;stroke-linecap:butt;stroke-linejoin:miter;stroke-opacity:1"
       sodipodi:nodetypes="cccc" />
    <path
       style="fill:#03045e;fill-opacity:1;stroke:none;stroke-width:0.26458332px;stroke-linecap:butt;stroke-linejoin:miter;stroke-opacity:1"
       d="m 10.891232,20.943986 -1.7975478,1.212979 0.2440437,1.643464 0.3131709,1.361417 1.7080542,0.860261 z"
       id="path901"
       inkscape:connector-curvature="0"
       sodipodi:nodetypes="cccccc" />
    <path
       inkscape:connector-curvature="0"
       id="path903"
       d="m 15.468222,23.249186 -4.109269,2.772921 4.57699,2.3052 z"
       style="fill:#03045e;stroke:none;stroke-width:0.26458332px;stroke-linecap:butt;stroke-linejoin:miter;stroke-opacity:1;fill-opacity:1" />
    <path
       style="fill:#03045e;stroke:none;stroke-width:0.26458332px;stroke-linecap:butt;stroke-linejoin:miter;stroke-opacity:1;fill-opacity:1"
       d="m 19.577491,20.476265 -4.109269,2.772921 4.57699,2.3052 z"
       id="path905"
       inkscape:connector-curvature="0" />
    <path
       inkscape:connector-curvature="0"
       id="path907"
       d="m 23.68676,17.703344 -4.109269,2.772921 4.57699,2.3052 z"
       style="fill:#03045e;stroke:none;stroke-width:0.26458332px;stroke-linecap:butt;stroke-linejoin:miter;stroke-opacity:1;fill-opacity:1" />
    <path
       style="fill:#03045e;fill-opacity:1;stroke:none;stroke-width:0.26458332px;stroke-linecap:butt;stroke-linejoin:miter;stroke-opacity:1"
       d="m 21.466174,15.353739 -0.941269,-0.910523 -1.415135,0.954928 4.57699,2.3052 -0.0094,-0.102096 z"
       id="path909"
       inkscape:connector-curvature="0"
       sodipodi:nodetypes="cccccc" />
    <path
       style="fill:#03045e;fill-opacity:1;stroke:none;stroke-width:0.26458332px;stroke-linecap:butt;stroke-linejoin:miter;stroke-opacity:1"
       d="m 27.679098,21.546179 -0.681798,-0.68304 -2.842822,1.918326 4.57699,2.3052 -0.254438,-2.762476 z"
       id="path913"
       inkscape:connector-curvature="0"
       sodipodi:nodetypes="cccccc" />
    <path
       inkscape:connector-curvature="0"
       id="path915"
       d="m 24.154481,22.781465 -4.109269,2.772921 4.57699,2.3052 z"
       style="fill:#03045e;stroke:none;stroke-width:0.26458332px;stroke-linecap:butt;stroke-linejoin:miter;stroke-opacity:1;fill-opacity:1" />
    <path
       style="fill:#03045e;stroke:none;stroke-width:0.26458332px;stroke-linecap:butt;stroke-linejoin:miter;stroke-opacity:1;fill-opacity:1"
       d="m 20.045212,25.554386 -4.109269,2.772921 4.57699,2.3052 z"
       id="path917"
       inkscape:connector-curvature="0" />
    <path
       inkscape:connector-curvature="0"
       id="path919"
       d="m 15.935943,28.327307 -3.967528,2.713862 4.435249,2.364259 z"
       style="fill:#03045e;fill-opacity:1;stroke:none;stroke-width:0.26458332px;stroke-linecap:butt;stroke-linejoin:miter;stroke-opacity:1"
       sodipodi:nodetypes="cccc" />
    <path
       style="fill:#03045e;fill-opacity:1;stroke:none;stroke-width:0.26458332px;stroke-linecap:butt;stroke-linejoin:miter;stroke-opacity:1"
       d="m 11.358953,26.022107 -1.21073,0.816997 0.408753,1.223595 1.136063,2.465405 0.09226,0.122965 z"
       id="path921"
       inkscape:connector-curvature="0"
       sodipodi:nodetypes="cccccc" />
    <path
       inkscape:connector-curvature="0"
       id="path923"
       d="m 16.403664,33.405428 -1.933694,1.304851 0.472064,0.591092 1.216463,1.367521 0.589785,0.478109 z"
       style="fill:#03045e;fill-opacity:1;stroke:none;stroke-width:0.26458332px;stroke-linecap:butt;stroke-linejoin:miter;stroke-opacity:1"
       sodipodi:nodetypes="cccccc" />
    <path
       inkscape:connector-curvature="0"
       id="path927"
       d="m 20.512933,30.632507 -4.109269,2.772921 4.57699,2.3052 z"
       style="fill:#03045e;stroke:none;stroke-width:0.26458332px;stroke-linecap:butt;stroke-linejoin:miter;stroke-opacity:1;fill-opacity:1" />
    <path
       style="fill:#03045e;stroke:none;stroke-width:0.26458332px;stroke-linecap:butt;stroke-linejoin:miter;stroke-opacity:1;fill-opacity:1"
       d="m 24.622202,27.859586 -4.109269,2.772921 4.57699,2.3052 z"
       id="path929"
       inkscape:connector-curvature="0" />
    <path
       inkscape:connector-curvature="0"
       id="path931"
       d="m 28.731471,25.086665 -4.109269,2.772921 4.57699,2.3052 z"
       style="fill:#03045e;stroke:none;stroke-width:0.26458332px;stroke-linecap:butt;stroke-linejoin:miter;stroke-opacity:1;fill-opacity:1" />
    <path
       style="fill:#03045e;fill-opacity:1;stroke:none;stroke-width:0.26458332px;stroke-linecap:butt;stroke-linejoin:miter;stroke-opacity:1"
       d="m 31.311118,25.174551 -1.078774,-1.087244 -1.500873,0.999358 4.57699,2.3052 -0.02493,-0.270666 z"
       id="path933"
       inkscape:connector-curvature="0"
       sodipodi:nodetypes="cccccc" />
    <path
       inkscape:connector-curvature="0"
       id="path935"
       d="m 33.308461,27.391865 -4.109269,2.772921 4.57699,2.3052 z"
       style="fill:#03045e;stroke:none;stroke-width:0.26458332px;stroke-linecap:butt;stroke-linejoin:miter;stroke-opacity:1;fill-opacity:1" />
    <path
       style="fill:#03045e;stroke:none;stroke-width:0.26458332px;stroke-linecap:butt;stroke-linejoin:miter;stroke-opacity:1;fill-opacity:1"
       d="m 29.199192,30.164786 -4.109269,2.772921 4.57699,2.3052 z"
       id="path937"
       inkscape:connector-curvature="0" />
    <path
       inkscape:connector-curvature="0"
       id="path939"
       d="m 25.089923,32.937707 -4.109269,2.772921 4.57699,2.3052 z"
       style="fill:#03045e;stroke:none;stroke-width:0.26458332px;stroke-linecap:butt;stroke-linejoin:miter;stroke-opacity:1;fill-opacity:1" />
    <path
       style="fill:#03045e;fill-opacity:1;stroke:none;stroke-width:0.26458332px;stroke-linecap:butt;stroke-linejoin:miter;stroke-opacity:1"
       d="m 20.980654,35.710628 -3.206759,2.16391 0.717812,0.467024 1.753955,0.927092 1.107282,0.483984 z"
       id="path941"
       inkscape:connector-curvature="0"
       sodipodi:nodetypes="cccccc" />
    <path
       inkscape:connector-curvature="0"
       id="path943"
       d="m 25.557644,38.015828 -3.116522,2.103019 c 1.404706,0.458049 1.345088,0.484552 3.391925,0.887078 z"
       style="fill:#03045e;fill-opacity:1;stroke:none;stroke-width:0.26458332px;stroke-linecap:butt;stroke-linejoin:miter;stroke-opacity:1"
       sodipodi:nodetypes="cccc" />
    <path
       style="fill:#03045e;stroke:none;stroke-width:0.26458332px;stroke-linecap:butt;stroke-linejoin:miter;stroke-opacity:1;fill-opacity:1"
       d="m 29.666913,35.242907 -4.109269,2.772921 4.57699,2.3052 z"
       id="path945"
       inkscape:connector-curvature="0" />
    <path
       inkscape:connector-curvature="0"
       id="path947"
       d="m 33.776182,32.469986 -4.109269,2.772921 4.57699,2.3052 z"
       style="fill:#03045e;stroke:none;stroke-width:0.26458332px;stroke-linecap:butt;stroke-linejoin:miter;stroke-opacity:1;fill-opacity:1" />
    <path
       style="fill:#03045e;fill-opacity:1;stroke:none;stroke-width:0.26458332px;stroke-linecap:butt;stroke-linejoin:miter;stroke-opacity:1"
       d="m 37.401025,31.208808 -0.70815,-0.706997 -2.916693,1.968175 4.57699,2.3052 -0.263128,-2.856826 z"
       id="path949"
       inkscape:connector-curvature="0"
       sodipodi:nodetypes="cccccc" />
    <path
       inkscape:connector-curvature="0"
       id="path951"
       d="m 33.537808,27.367113 -0.08483,-0.07277 -0.144517,0.09752 0.507909,0.255808 -0.131235,-0.133782 z"
       style="fill:#03045e;fill-opacity:1;stroke:none;stroke-width:0.26458332px;stroke-linecap:butt;stroke-linejoin:miter;stroke-opacity:1"
       sodipodi:nodetypes="cccccc" />
    <path
       style="fill:#03045e;fill-opacity:1;stroke:none;stroke-width:0.26458332px;stroke-linecap:butt;stroke-linejoin:miter;stroke-opacity:1"
       d="m 41.000811,34.775186 -1.084776,-1.054615 -1.562863,1.054615 4.57699,2.3052 -0.03734,-0.405438 z"
       id="path953"
       inkscape:connector-curvature="0"
       sodipodi:nodetypes="cccccc" />
    <path
       inkscape:connector-curvature="0"
       id="path955"
       d="m 38.353172,34.775186 -4.109269,2.772921 4.57699,2.3052 z"
       style="fill:#03045e;stroke:none;stroke-width:0.26458332px;stroke-linecap:butt;stroke-linejoin:miter;stroke-opacity:1;fill-opacity:1" />
    <path
       style="fill:#03045e;fill-opacity:1;stroke:none;stroke-width:0.26458332px;stroke-linecap:butt;stroke-linejoin:miter;stroke-opacity:1"
       d="m 34.243903,37.548107 -4.109269,2.772921 2.46196,1.239965 1.0376,-0.03308 0.971595,-0.05075 z"
       id="path957"
       inkscape:connector-curvature="0"
       sodipodi:nodetypes="cccccc" />
    <path
       style="fill:#03045e;fill-opacity:1;stroke:none;stroke-width:0.26458332px;stroke-linecap:butt;stroke-linejoin:miter;stroke-opacity:1"
       d="m 30.134634,40.321028 -1.611372,1.087349 c 0.946466,0.125635 0.96476,0.11497 1.721088,0.103853 z"
       id="path961"
       inkscape:connector-curvature="0"
       sodipodi:nodetypes="cccc" />
    <path
       style="fill:#03045e;fill-opacity:1;stroke:none;stroke-width:0.26458332px;stroke-linecap:butt;stroke-linejoin:miter;stroke-opacity:1"
       d="m 38.820893,39.853307 -2.139267,1.44357 0.510593,-0.04876 1.252826,-0.167043 0.47974,-0.0998 z"
       id="path965"
       inkscape:connector-curvature="0"
       sodipodi:nodetypes="cccccc" />
    <path
       style="fill:#03045e;fill-opacity:1;stroke:none;stroke-width:0.26458332px;stroke-linecap:butt;stroke-linejoin:miter;stroke-opacity:1"
       d="m 42.930162,37.080386 -4.109269,2.772921 1.664634,0.838392 1.534247,-0.303856 1.182599,-0.352018 z"
       id="path969"
       inkscape:connector-curvature="0"
       sodipodi:nodetypes="cccccc" />
    <path
       inkscape:connector-curvature="0"
       id="path971"
       d="m 14.360077,37.19124 -0.351987,-0.320538 -0.333351,0.224944 -0.591292,1.249029 -0.779687,1.630335 2.918678,1.469992 -0.351117,-3.812137 z"
       style="fill:#03045e;fill-opacity:1;stroke:none;stroke-width:0.26458332px;stroke-linecap:butt;stroke-linejoin:miter;stroke-opacity:1"
       sodipodi:nodetypes="cccccccc" />
    <path
       style="fill:#03045e;fill-opacity:1;stroke:none;stroke-width:0.26458332px;stroke-linecap:butt;stroke-linejoin:miter;stroke-opacity:1"
       d="m 17.801219,39.704849 -2.578781,1.740153 4.57699,2.3052 -0.285455,-3.099229 c -0.610136,-0.306197 -1.213657,-0.62737 -1.712754,-0.946124 z"
       id="path973"
       inkscape:connector-curvature="0"
       sodipodi:nodetypes="ccccc" />
    <path
       inkscape:connector-curvature="0"
       id="path975"
       d="m 22.597534,41.862049 -2.798106,1.888153 4.57699,2.3052 -0.350632,-3.806868 C 23.38588,42.120732 23.055969,42.013719 22.597534,41.862049 Z"
       style="fill:#03045e;fill-opacity:1;stroke:none;stroke-width:0.26458332px;stroke-linecap:butt;stroke-linejoin:miter;stroke-opacity:1"
       sodipodi:nodetypes="ccccc" />
    <path
       style="fill:#03045e;fill-opacity:1;stroke:none;stroke-width:0.26458332px;stroke-linecap:butt;stroke-linejoin:miter;stroke-opacity:1"
       d="m 28.392143,43.98991 -0.228318,-0.490238 -3.787407,2.55573 4.57699,2.3052 -0.357719,-3.883814 z"
       id="path977"
       inkscape:connector-curvature="0"
       sodipodi:nodetypes="cccccc" />
    <path
       inkscape:connector-curvature="0"
       id="path979"
       d="M 30.168797,47.911053 30.02429,47.637975 28.953408,48.360602 30.681013,49.23071 30.48769,48.7145 Z"
       style="fill:#03045e;fill-opacity:1;stroke:none;stroke-width:0.26458332px;stroke-linecap:butt;stroke-linejoin:miter;stroke-opacity:1"
       sodipodi:nodetypes="cccccc" />
    <path
       style="fill:#03045e;fill-opacity:1;stroke:none;stroke-width:0.26458332px;stroke-linecap:butt;stroke-linejoin:miter;stroke-opacity:1"
       d="m 28.953408,48.360602 -4.109269,2.772921 0.904004,0.455301 1.672075,0.01435 1.835246,0.0369 z"
       id="path981"
       inkscape:connector-curvature="0"
       sodipodi:nodetypes="cccccc" />
    <path
       inkscape:connector-curvature="0"
       id="path983"
       d="m 24.376418,46.055402 -4.109269,2.772921 4.57699,2.3052 z"
       style="fill:#03045e;fill-opacity:1;stroke:none;stroke-width:0.26458332px;stroke-linecap:butt;stroke-linejoin:miter;stroke-opacity:1" />
    <path
       style="fill:#03045e;fill-opacity:1;stroke:none;stroke-width:0.26458332px;stroke-linecap:butt;stroke-linejoin:miter;stroke-opacity:1"
       d="m 19.799428,43.750202 -4.109269,2.772921 4.57699,2.3052 z"
       id="path985"
       inkscape:connector-curvature="0" />
    <path
       inkscape:connector-curvature="0"
       id="path987"
       d="m 15.222438,41.445002 -4.109269,2.772921 4.57699,2.3052 z"
       style="fill:#03045e;fill-opacity:1;stroke:none;stroke-width:0.26458332px;stroke-linecap:butt;stroke-linejoin:miter;stroke-opacity:1" />
    <path
       style="fill:#03045e;fill-opacity:1;stroke:none;stroke-width:0.26458332px;stroke-linecap:butt;stroke-linejoin:miter;stroke-opacity:1"
       d="m 10.74337,43.258489 -0.166099,0.311708 -0.14466,0.304963 0.680558,0.342763 -0.135629,-1.472544 z"
       id="path989"
       inkscape:connector-curvature="0"
       sodipodi:nodetypes="cccccc" />
    <path
       inkscape:connector-curvature="0"
       id="path991"
       d="M 11.113169,44.217923 9.9085603,45.030789 9.3024686,46.279776 8.5730339,47.781138 11.58089,49.296044 Z"
       style="fill:#03045e;fill-opacity:1;stroke:none;stroke-width:0.26458332px;stroke-linecap:butt;stroke-linejoin:miter;stroke-opacity:1"
       sodipodi:nodetypes="cccccc" />
    <path
       style="fill:#03045e;fill-opacity:1;stroke:none;stroke-width:0.26458332px;stroke-linecap:butt;stroke-linejoin:miter;stroke-opacity:1"
       d="m 20.267149,48.828323 -3.979223,2.685167 1.179696,0.0025 2.162255,0.01971 0.887479,0.0092 z"
       id="path993"
       inkscape:connector-curvature="0"
       sodipodi:nodetypes="cccccc" />
    <path
       inkscape:connector-curvature="0"
       id="path995"
       d="m 15.690159,46.523123 -4.109269,2.772921 4.402937,2.217538 0.0769,-0.0012 0.08872,-0.0026 z"
       style="fill:#03045e;fill-opacity:1;stroke:none;stroke-width:0.26458332px;stroke-linecap:butt;stroke-linejoin:miter;stroke-opacity:1"
       sodipodi:nodetypes="cccccc" />
    <path
       inkscape:connector-curvature="0"
       id="path997"
       d="m 24.844139,51.133523 -0.64732,0.441666 c 0.353389,0.0041 0.438479,0.0057 0.688696,0.0075 z"
       style="fill:#03045e;fill-opacity:1;stroke:none;stroke-width:0.26458332px;stroke-linecap:butt;stroke-linejoin:miter;stroke-opacity:1"
       sodipodi:nodetypes="cccc" />
    <path
       style="fill:#03045e;fill-opacity:1;stroke:none;stroke-width:0.26458332px;stroke-linecap:butt;stroke-linejoin:miter;stroke-opacity:1"
       d="m 11.58089,49.296044 -3.2663778,2.204142 0.7824424,-0.01587 1.3847884,-0.01002 1.301494,0.01866 z"
       id="path999"
       inkscape:connector-curvature="0"
       sodipodi:nodetypes="cccccc" />
    <path
       style="fill:#03045e;fill-opacity:1;stroke:none;stroke-width:0.26458332px;stroke-linecap:butt;stroke-linejoin:miter;stroke-opacity:1"
       d="M 7.0994087,50.872386 6.902073,51.289376 6.7657902,51.561164 7.4218147,51.528194 7.3210624,50.43431 Z"
       id="path1003"
       inkscape:connector-curvature="0"
       sodipodi:nodetypes="cccccc" />
    <path
       style="fill:#03045e;fill-opacity:1;stroke:none;stroke-width:0.26458332px;stroke-linecap:butt;stroke-linejoin:miter;stroke-opacity:1"
       d="m 31.8176,18.381541 -1.373098,1.34637 -0.913738,0.918764 2.676129,1.347832 0.265516,-0.294648 0.285838,-0.281755 -0.332818,-3.613459 z"
       id="path1009"
       inkscape:connector-curvature="0"
       sodipodi:nodetypes="cccccccc" />
    <path
       inkscape:connector-curvature="0"
       id="path1011"
       d="m 36.482288,14.462702 -3.488069,2.353737 c 0.504678,0.987187 2.100513,2.377566 3.914733,2.278627 z"
       style="fill:#03045e;fill-opacity:1;stroke:none;stroke-width:0.26458332px;stroke-linecap:butt;stroke-linejoin:miter;stroke-opacity:1"
       sodipodi:nodetypes="cccc" />
    <path
       style="fill:#03045e;fill-opacity:1;stroke:none;stroke-width:0.26458332px;stroke-linecap:butt;stroke-linejoin:miter;stroke-opacity:1"
       d="m 38.691279,12.972083 -2.208991,1.490619 3.172846,1.598003 c 0.24852,-1.129347 -0.122953,-2.486553 -0.963855,-3.088622 z"
       id="path1013"
       inkscape:connector-curvature="0"
       sodipodi:nodetypes="cccc" />
    <path
       inkscape:connector-curvature="0"
       id="path1015"
       d="m 33.75031,13.086742 2.731978,1.37596 -0.228936,-2.485598 c -1.134051,-0.0056 -1.956066,0.452868 -2.503042,1.109638 z"
       style="fill:#03045e;fill-opacity:1;stroke:none;stroke-width:0.26458332px;stroke-linecap:butt;stroke-linejoin:miter;stroke-opacity:1"
       sodipodi:nodetypes="cccc" />
  </g>
</svg>
